<svg width="646" height="576" viewBox="0 0 646 576" fill="none" xmlns="http://www.w3.org/2000/svg">
<path d="M74.47 82.6699C74.47 83.7799 73.58 84.6699 72.47 84.6699H48.47C47.37 84.6699 46.47 83.7799 46.47 82.6699C46.47 81.5699 47.37 80.6699 48.47 80.6699H72.47C73.58 80.6699 74.47 81.5699 74.47 82.6699Z" fill="#686F6E"/>
<g opacity="0.7">
<path d="M104.64 55.16C104.64 64.37 97.1799 71.83 87.9699 71.83C78.7699 71.83 71.3099 64.37 71.3099 55.16C71.3099 45.96 78.7699 38.5 87.9699 38.5C97.1799 38.5 104.64 45.96 104.64 55.16Z" fill="#686F6E"/>
</g>
<path d="M101.64 53.5001C101.64 61.0401 95.5199 67.1601 87.9699 67.1601C80.4299 67.1601 74.3099 61.0401 74.3099 53.5001C74.3099 45.9501 80.4299 39.8301 87.9699 39.8301C95.5199 39.8301 101.64 45.9501 101.64 53.5001Z" fill="white"/>
<path d="M94.2899 53.4999C94.2899 56.9799 91.4599 59.8099 87.9699 59.8099C84.4899 59.8099 81.6599 56.9799 81.6599 53.4999C81.6599 50.0099 84.4899 47.1799 87.9699 47.1799C91.4599 47.1799 94.2899 50.0099 94.2899 53.4999Z" fill="#3549AA"/>
<path d="M91.75 53.5C91.75 55.58 90.06 57.28 87.97 57.28C85.89 57.28 84.2 55.58 84.2 53.5C84.2 51.41 85.89 49.72 87.97 49.72C90.06 49.72 91.75 51.41 91.75 53.5Z" fill="#172156"/>
<path d="M89.9299 51.6699C89.9299 53.2299 88.6699 54.4998 87.1099 54.4998C85.5499 54.4998 84.2899 53.2299 84.2899 51.6699C84.2899 50.1099 85.5499 48.8499 87.1099 48.8499C88.6699 48.8499 89.9299 50.1099 89.9299 51.6699Z" fill="white"/>
<g opacity="0.7">
<path d="M49.6399 55.16C49.6399 64.37 42.1799 71.83 32.9699 71.83C23.7699 71.83 16.3099 64.37 16.3099 55.16C16.3099 45.96 23.7699 38.5 32.9699 38.5C42.1799 38.5 49.6399 45.96 49.6399 55.16Z" fill="#686F6E"/>
</g>
<path d="M46.6399 53.5001C46.6399 61.0401 40.5199 67.1601 32.9699 67.1601C25.4299 67.1601 19.3099 61.0401 19.3099 53.5001C19.3099 45.9501 25.4299 39.8301 32.9699 39.8301C40.5199 39.8301 46.6399 45.9501 46.6399 53.5001Z" fill="white"/>
<path d="M39.2899 53.4999C39.2899 56.9799 36.4599 59.8099 32.9699 59.8099C29.4899 59.8099 26.6599 56.9799 26.6599 53.4999C26.6599 50.0099 29.4899 47.1799 32.9699 47.1799C36.4599 47.1799 39.2899 50.0099 39.2899 53.4999Z" fill="#3549AA"/>
<path d="M36.75 53.5C36.75 55.58 35.0599 57.28 32.9699 57.28C30.8899 57.28 29.2 55.58 29.2 53.5C29.2 51.41 30.8899 49.72 32.9699 49.72C35.0599 49.72 36.75 51.41 36.75 53.5Z" fill="#172156"/>
<path d="M34.9299 51.6699C34.9299 53.2299 33.6699 54.4998 32.1099 54.4998C30.5499 54.4998 29.2899 53.2299 29.2899 51.6699C29.2899 50.1099 30.5499 48.8499 32.1099 48.8499C33.6699 48.8499 34.9299 50.1099 34.9299 51.6699Z" fill="white"/>
<g opacity="0.7">
<path d="M279.57 55.16C279.57 64.37 272.11 71.83 262.91 71.83C253.7 71.83 246.24 64.37 246.24 55.16C246.24 45.96 253.7 38.5 262.91 38.5C272.11 38.5 279.57 45.96 279.57 55.16Z" fill="#686F6E"/>
</g>
<path d="M276.57 53.5001C276.57 61.0401 270.45 67.1601 262.91 67.1601C255.36 67.1601 249.24 61.0401 249.24 53.5001C249.24 45.9501 255.36 39.8301 262.91 39.8301C270.45 39.8301 276.57 45.9501 276.57 53.5001Z" fill="white"/>
<path d="M269.22 53.4999C269.22 56.9799 266.39 59.8099 262.91 59.8099C259.42 59.8099 256.59 56.9799 256.59 53.4999C256.59 50.0099 259.42 47.1799 262.91 47.1799C266.39 47.1799 269.22 50.0099 269.22 53.4999Z" fill="#3549AA"/>
<path d="M266.68 53.5C266.68 55.58 264.99 57.28 262.91 57.28C260.82 57.28 259.13 55.58 259.13 53.5C259.13 51.41 260.82 49.72 262.91 49.72C264.99 49.72 266.68 51.41 266.68 53.5Z" fill="#172156"/>
<path d="M264.86 51.6699C264.86 53.2299 263.6 54.4998 262.04 54.4998C260.48 54.4998 259.22 53.2299 259.22 51.6699C259.22 50.1099 260.48 48.8499 262.04 48.8499C263.6 48.8499 264.86 50.1099 264.86 51.6699Z" fill="white"/>
<g opacity="0.7">
<path d="M224.57 55.16C224.57 64.37 217.11 71.83 207.91 71.83C198.7 71.83 191.24 64.37 191.24 55.16C191.24 45.96 198.7 38.5 207.91 38.5C217.11 38.5 224.57 45.96 224.57 55.16Z" fill="#686F6E"/>
</g>
<path d="M221.57 53.5001C221.57 61.0401 215.45 67.1601 207.91 67.1601C200.36 67.1601 194.24 61.0401 194.24 53.5001C194.24 45.9501 200.36 39.8301 207.91 39.8301C215.45 39.8301 221.57 45.9501 221.57 53.5001Z" fill="white"/>
<path d="M214.22 53.4999C214.22 56.9799 211.39 59.8099 207.91 59.8099C204.42 59.8099 201.59 56.9799 201.59 53.4999C201.59 50.0099 204.42 47.1799 207.91 47.1799C211.39 47.1799 214.22 50.0099 214.22 53.4999Z" fill="#3549AA"/>
<path d="M211.68 53.5C211.68 55.58 209.99 57.28 207.91 57.28C205.82 57.28 204.13 55.58 204.13 53.5C204.13 51.41 205.82 49.72 207.91 49.72C209.99 49.72 211.68 51.41 211.68 53.5Z" fill="#172156"/>
<path d="M209.86 51.6699C209.86 53.2299 208.6 54.4998 207.04 54.4998C205.48 54.4998 204.22 53.2299 204.22 51.6699C204.22 50.1099 205.48 48.8499 207.04 48.8499C208.6 48.8499 209.86 50.1099 209.86 51.6699Z" fill="white"/>
<path d="M235.02 84.8599C229.47 84.8599 225.08 82.1599 222.88 79.8599C222.12 79.0599 222.15 77.7899 222.95 77.0299C223.75 76.2699 225.01 76.2999 225.77 77.0899C226.12 77.4399 234.18 85.5199 245.25 76.8999C246.12 76.2199 247.38 76.3799 248.06 77.2499C248.74 78.1199 248.58 79.3799 247.71 80.0599C243.16 83.5999 238.82 84.8599 235.02 84.8599Z" fill="#686F6E"/>
<g opacity="0.7">
<path d="M104.64 206.58C104.64 215.79 97.1799 223.25 87.9699 223.25C78.7699 223.25 71.3099 215.79 71.3099 206.58C71.3099 197.38 78.7699 189.92 87.9699 189.92C97.1799 189.92 104.64 197.38 104.64 206.58Z" fill="#686F6E"/>
</g>
<path d="M101.64 204.92C101.64 212.46 95.5199 218.58 87.9699 218.58C80.4299 218.58 74.3099 212.46 74.3099 204.92C74.3099 197.37 80.4299 191.25 87.9699 191.25C95.5199 191.25 101.64 197.37 101.64 204.92Z" fill="white"/>
<path d="M94.2899 204.92C94.2899 208.4 91.4599 211.23 87.9699 211.23C84.4899 211.23 81.6599 208.4 81.6599 204.92C81.6599 201.43 84.4899 198.6 87.9699 198.6C91.4599 198.6 94.2899 201.43 94.2899 204.92Z" fill="#3549AA"/>
<path d="M91.75 204.92C91.75 207 90.06 208.7 87.97 208.7C85.89 208.7 84.2 207 84.2 204.92C84.2 202.83 85.89 201.14 87.97 201.14C90.06 201.14 91.75 202.83 91.75 204.92Z" fill="#172156"/>
<path d="M89.9299 203.09C89.9299 204.65 88.6699 205.92 87.1099 205.92C85.5499 205.92 84.2899 204.65 84.2899 203.09C84.2899 201.53 85.5499 200.27 87.1099 200.27C88.6699 200.27 89.9299 201.53 89.9299 203.09Z" fill="white"/>
<g opacity="0.7">
<path d="M49.6399 206.58C49.6399 215.79 42.1799 223.25 32.9699 223.25C23.7699 223.25 16.3099 215.79 16.3099 206.58C16.3099 197.38 23.7699 189.92 32.9699 189.92C42.1799 189.92 49.6399 197.38 49.6399 206.58Z" fill="#686F6E"/>
</g>
<path d="M46.6399 204.92C46.6399 212.46 40.5199 218.58 32.9699 218.58C25.4299 218.58 19.3099 212.46 19.3099 204.92C19.3099 197.37 25.4299 191.25 32.9699 191.25C40.5199 191.25 46.6399 197.37 46.6399 204.92Z" fill="white"/>
<path d="M39.2899 204.92C39.2899 208.4 36.4599 211.23 32.9699 211.23C29.4899 211.23 26.6599 208.4 26.6599 204.92C26.6599 201.43 29.4899 198.6 32.9699 198.6C36.4599 198.6 39.2899 201.43 39.2899 204.92Z" fill="#3549AA"/>
<path d="M36.75 204.92C36.75 207 35.0599 208.7 32.9699 208.7C30.8899 208.7 29.2 207 29.2 204.92C29.2 202.83 30.8899 201.14 32.9699 201.14C35.0599 201.14 36.75 202.83 36.75 204.92Z" fill="#172156"/>
<path d="M34.9299 203.09C34.9299 204.65 33.6699 205.92 32.1099 205.92C30.5499 205.92 29.2899 204.65 29.2899 203.09C29.2899 201.53 30.5499 200.27 32.1099 200.27C33.6699 200.27 34.9299 201.53 34.9299 203.09Z" fill="white"/>
<path d="M60.86 227.9C66.41 227.9 70.8 230.6 73 232.9C73.76 233.7 73.73 234.97 72.93 235.73C72.13 236.49 70.87 236.46 70.11 235.67C69.76 235.32 61.7 227.24 50.63 235.86C49.76 236.54 48.5 236.39 47.82 235.51C47.14 234.64 47.3 233.38 48.17 232.71C52.72 229.17 57.06 227.9 60.86 227.9Z" fill="#686F6E"/>
<g opacity="0.7">
<path d="M279.57 206.58C279.57 215.79 272.11 223.25 262.91 223.25C253.7 223.25 246.24 215.79 246.24 206.58C246.24 197.38 253.7 189.92 262.91 189.92C272.11 189.92 279.57 197.38 279.57 206.58Z" fill="#686F6E"/>
</g>
<path d="M276.57 204.92C276.57 212.46 270.45 218.58 262.91 218.58C255.36 218.58 249.24 212.46 249.24 204.92C249.24 197.37 255.36 191.25 262.91 191.25C270.45 191.25 276.57 197.37 276.57 204.92Z" fill="white"/>
<path d="M269.22 204.92C269.22 208.4 266.39 211.23 262.91 211.23C259.42 211.23 256.59 208.4 256.59 204.92C256.59 201.43 259.42 198.6 262.91 198.6C266.39 198.6 269.22 201.43 269.22 204.92Z" fill="#3549AA"/>
<path d="M266.68 204.92C266.68 207 264.99 208.7 262.91 208.7C260.82 208.7 259.13 207 259.13 204.92C259.13 202.83 260.82 201.14 262.91 201.14C264.99 201.14 266.68 202.83 266.68 204.92Z" fill="#172156"/>
<path d="M264.86 203.09C264.86 204.65 263.6 205.92 262.04 205.92C260.48 205.92 259.22 204.65 259.22 203.09C259.22 201.53 260.48 200.27 262.04 200.27C263.6 200.27 264.86 201.53 264.86 203.09Z" fill="white"/>
<g opacity="0.7">
<path d="M191.24 206.58C191.24 215.79 198.7 223.25 207.91 223.25C217.11 223.25 224.57 215.79 224.57 206.58C224.57 197.38 217.11 189.92 207.91 189.92C198.7 189.92 191.24 197.38 191.24 206.58Z" fill="#686F6E"/>
</g>
<path d="M194.24 204.92C194.24 212.46 200.36 218.58 207.91 218.58C215.45 218.58 221.57 212.46 221.57 204.92C221.57 197.37 215.45 191.25 207.91 191.25C200.36 191.25 194.24 197.37 194.24 204.92Z" fill="white"/>
<path d="M201.59 204.92C201.59 208.4 204.42 211.23 207.91 211.23C211.39 211.23 214.22 208.4 214.22 204.92C214.22 201.43 211.39 198.6 207.91 198.6C204.42 198.6 201.59 201.43 201.59 204.92Z" fill="#3549AA"/>
<path d="M204.13 204.92C204.13 207 205.82 208.7 207.91 208.7C209.99 208.7 211.68 207 211.68 204.92C211.68 202.83 209.99 201.14 207.91 201.14C205.82 201.14 204.13 202.83 204.13 204.92Z" fill="#172156"/>
<path d="M205.95 203.09C205.95 204.65 207.21 205.92 208.77 205.92C210.33 205.92 211.59 204.65 211.59 203.09C211.59 201.53 210.33 200.27 208.77 200.27C207.21 200.27 205.95 201.53 205.95 203.09Z" fill="white"/>
<path d="M235.79 227.9C241.34 227.9 245.73 230.6 247.93 232.9C248.69 233.7 248.66 234.97 247.86 235.73C247.06 236.49 245.8 236.46 245.04 235.67C244.7 235.32 236.63 227.24 225.56 235.86C224.69 236.54 223.43 236.39 222.75 235.51C222.07 234.64 222.23 233.38 223.1 232.71C227.65 229.17 231.99 227.9 235.79 227.9Z" fill="#686F6E"/>
<g opacity="0.7">
<path d="M454.5 55.16C454.5 64.37 447.04 71.83 437.84 71.83C428.63 71.83 421.17 64.37 421.17 55.16C421.17 45.96 428.63 38.5 437.84 38.5C447.04 38.5 454.5 45.96 454.5 55.16Z" fill="#686F6E"/>
</g>
<path d="M451.5 53.5001C451.5 61.0401 445.38 67.1601 437.84 67.1601C430.29 67.1601 424.17 61.0401 424.17 53.5001C424.17 45.9501 430.29 39.8301 437.84 39.8301C445.38 39.8301 451.5 45.9501 451.5 53.5001Z" fill="white"/>
<path d="M444.15 53.4999C444.15 56.9799 441.32 59.8099 437.84 59.8099C434.35 59.8099 431.52 56.9799 431.52 53.4999C431.52 50.0099 434.35 47.1799 437.84 47.1799C441.32 47.1799 444.15 50.0099 444.15 53.4999Z" fill="#3549AA"/>
<path d="M441.62 53.5C441.62 55.58 439.92 57.28 437.84 57.28C435.75 57.28 434.06 55.58 434.06 53.5C434.06 51.41 435.75 49.72 437.84 49.72C439.92 49.72 441.62 51.41 441.62 53.5Z" fill="#172156"/>
<path d="M439.8 51.6699C439.8 53.2299 438.53 54.4998 436.97 54.4998C435.41 54.4998 434.15 53.2299 434.15 51.6699C434.15 50.1099 435.41 48.8499 436.97 48.8499C438.53 48.8499 439.8 50.1099 439.8 51.6699Z" fill="white"/>
<g opacity="0.7">
<path d="M399.5 55.16C399.5 64.37 392.04 71.83 382.84 71.83C373.63 71.83 366.17 64.37 366.17 55.16C366.17 45.96 373.63 38.5 382.84 38.5C392.04 38.5 399.5 45.96 399.5 55.16Z" fill="#686F6E"/>
</g>
<path d="M396.5 53.5001C396.5 61.0401 390.38 67.1601 382.84 67.1601C375.29 67.1601 369.17 61.0401 369.17 53.5001C369.17 45.9501 375.29 39.8301 382.84 39.8301C390.38 39.8301 396.5 45.9501 396.5 53.5001Z" fill="white"/>
<path d="M389.15 53.4999C389.15 56.9799 386.32 59.8099 382.84 59.8099C379.35 59.8099 376.52 56.9799 376.52 53.4999C376.52 50.0099 379.35 47.1799 382.84 47.1799C386.32 47.1799 389.15 50.0099 389.15 53.4999Z" fill="#3549AA"/>
<path d="M386.62 53.5C386.62 55.58 384.92 57.28 382.84 57.28C380.75 57.28 379.06 55.58 379.06 53.5C379.06 51.41 380.75 49.72 382.84 49.72C384.92 49.72 386.62 51.41 386.62 53.5Z" fill="#172156"/>
<path d="M384.8 51.6699C384.8 53.2299 383.53 54.4998 381.97 54.4998C380.41 54.4998 379.15 53.2299 379.15 51.6699C379.15 50.1099 380.41 48.8499 381.97 48.8499C383.53 48.8499 384.8 50.1099 384.8 51.6699Z" fill="white"/>
<path d="M408.42 85.1699C405.02 85.1699 402.87 84.3899 402.7 84.3299C401.67 83.9399 401.15 82.7899 401.54 81.7499C401.92 80.7199 403.07 80.1999 404.1 80.5799C404.4 80.6899 410.64 82.8399 418.85 78.3099C419.82 77.7799 421.04 78.1399 421.57 79.0999C422.1 80.0699 421.75 81.2799 420.78 81.8199C415.96 84.4699 411.64 85.1699 408.42 85.1699Z" fill="#686F6E"/>
<path d="M425.96 84.19C425.767 84.19 425.57 84.16 425.37 84.1C422.797 83.3067 420.983 81.9033 419.93 79.89C418.31 76.78 419.31 73.52 419.42 73.16C419.77 72.11 420.9 71.54 421.95 71.88C422.99 72.22 423.56 73.35 423.23 74.39C423.21 74.46 422.63 76.43 423.49 78.07C424.03 79.0834 425.047 79.82 426.54 80.28C427.6 80.6 428.19 81.72 427.87 82.77C427.61 83.63 426.82 84.19 425.96 84.19Z" fill="#686F6E"/>
<g opacity="0.7">
<path d="M629.43 55.16C629.43 64.37 621.97 71.83 612.77 71.83C603.56 71.83 596.1 64.37 596.1 55.16C596.1 45.96 603.56 38.5 612.77 38.5C621.97 38.5 629.43 45.96 629.43 55.16Z" fill="#686F6E"/>
</g>
<path d="M626.43 53.5001C626.43 61.0401 620.32 67.1601 612.77 67.1601C605.22 67.1601 599.1 61.0401 599.1 53.5001C599.1 45.9501 605.22 39.8301 612.77 39.8301C620.32 39.8301 626.43 45.9501 626.43 53.5001Z" fill="white"/>
<path d="M619.08 53.4999C619.08 56.9799 616.25 59.8099 612.77 59.8099C609.28 59.8099 606.45 56.9799 606.45 53.4999C606.45 50.0099 609.28 47.1799 612.77 47.1799C616.25 47.1799 619.08 50.0099 619.08 53.4999Z" fill="#3549AA"/>
<path d="M616.55 53.5C616.55 55.58 614.86 57.28 612.77 57.28C610.68 57.28 608.99 55.58 608.99 53.5C608.99 51.41 610.68 49.72 612.77 49.72C614.86 49.72 616.55 51.41 616.55 53.5Z" fill="#172156"/>
<path d="M614.73 51.6699C614.73 53.2299 613.46 54.4998 611.9 54.4998C610.34 54.4998 609.08 53.2299 609.08 51.6699C609.08 50.1099 610.34 48.8499 611.9 48.8499C613.46 48.8499 614.73 50.1099 614.73 51.6699Z" fill="white"/>
<g opacity="0.7">
<path d="M574.43 55.16C574.43 64.37 566.97 71.83 557.77 71.83C548.56 71.83 541.1 64.37 541.1 55.16C541.1 45.96 548.56 38.5 557.77 38.5C566.97 38.5 574.43 45.96 574.43 55.16Z" fill="#686F6E"/>
</g>
<path d="M571.43 53.5001C571.43 61.0401 565.32 67.1601 557.77 67.1601C550.22 67.1601 544.1 61.0401 544.1 53.5001C544.1 45.9501 550.22 39.8301 557.77 39.8301C565.32 39.8301 571.43 45.9501 571.43 53.5001Z" fill="white"/>
<path d="M564.08 53.4999C564.08 56.9799 561.25 59.8099 557.77 59.8099C554.28 59.8099 551.45 56.9799 551.45 53.4999C551.45 50.0099 554.28 47.1799 557.77 47.1799C561.25 47.1799 564.08 50.0099 564.08 53.4999Z" fill="#3549AA"/>
<path d="M561.55 53.5C561.55 55.58 559.86 57.28 557.77 57.28C555.68 57.28 553.99 55.58 553.99 53.5C553.99 51.41 555.68 49.72 557.77 49.72C559.86 49.72 561.55 51.41 561.55 53.5Z" fill="#172156"/>
<path d="M559.73 51.6699C559.73 53.2299 558.46 54.4998 556.9 54.4998C555.34 54.4998 554.08 53.2299 554.08 51.6699C554.08 50.1099 555.34 48.8499 556.9 48.8499C558.46 48.8499 559.73 50.1099 559.73 51.6699Z" fill="white"/>
<path d="M606.42 78.6701C606.62 79.7601 605.89 80.7901 604.8 80.9801L581.16 85.1401C580.08 85.3301 579.04 84.6101 578.85 83.5201C578.65 82.4301 579.38 81.3901 580.47 81.2001L604.11 77.0401C605.2 76.8501 606.23 77.5801 606.42 78.6701Z" fill="#686F6E"/>
<g opacity="0.7">
<path d="M574.43 509.42C574.43 518.63 566.97 526.09 557.77 526.09C548.56 526.09 541.1 518.63 541.1 509.42C541.1 500.22 548.56 492.76 557.77 492.76C566.97 492.76 574.43 500.22 574.43 509.42Z" fill="#686F6E"/>
</g>
<path d="M571.43 507.76C571.43 515.3 565.32 521.42 557.77 521.42C550.22 521.42 544.1 515.3 544.1 507.76C544.1 500.21 550.22 494.09 557.77 494.09C565.32 494.09 571.43 500.21 571.43 507.76Z" fill="white"/>
<path d="M564.08 507.76C564.08 511.24 561.25 514.07 557.77 514.07C554.28 514.07 551.45 511.24 551.45 507.76C551.45 504.27 554.28 501.44 557.77 501.44C561.25 501.44 564.08 504.27 564.08 507.76Z" fill="#3549AA"/>
<path d="M561.55 507.76C561.55 509.84 559.86 511.54 557.77 511.54C555.68 511.54 553.99 509.84 553.99 507.76C553.99 505.67 555.68 503.98 557.77 503.98C559.86 503.98 561.55 505.67 561.55 507.76Z" fill="#172156"/>
<path d="M559.73 505.93C559.73 507.49 558.46 508.76 556.9 508.76C555.34 508.76 554.08 507.49 554.08 505.93C554.08 504.37 555.34 503.11 556.9 503.11C558.46 503.11 559.73 504.37 559.73 505.93Z" fill="white"/>
<path d="M599.97 514.21C599.1 514.21 598.24 513.83 597.65 513.11C596.6 511.83 596.78 509.94 598.07 508.89C598.57 508.47 610.58 498.81 621.51 505.89C622.9 506.79 623.3 508.64 622.4 510.03C621.5 511.43 619.64 511.82 618.25 510.92C610.95 506.2 601.96 513.45 601.87 513.53C601.31 513.98 600.64 514.21 599.97 514.21Z" fill="#686F6E"/>
<path d="M606.42 532.93C606.62 534.01 605.89 535.05 604.8 535.24L581.16 539.4C580.08 539.59 579.04 538.87 578.85 537.78C578.65 536.69 579.38 535.65 580.47 535.46L604.11 531.3C605.2 531.11 606.23 531.84 606.42 532.93Z" fill="#686F6E"/>
<g opacity="0.7">
<path d="M454.5 206.58C454.5 215.79 447.04 223.25 437.84 223.25C428.63 223.25 421.17 215.79 421.17 206.58C421.17 197.38 428.63 189.92 437.84 189.92C447.04 189.92 454.5 197.38 454.5 206.58Z" fill="#686F6E"/>
</g>
<path d="M451.5 204.92C451.5 212.46 445.38 218.58 437.84 218.58C430.29 218.58 424.17 212.46 424.17 204.92C424.17 197.37 430.29 191.25 437.84 191.25C445.38 191.25 451.5 197.37 451.5 204.92Z" fill="white"/>
<path d="M444.15 204.92C444.15 208.4 441.32 211.23 437.84 211.23C434.35 211.23 431.52 208.4 431.52 204.92C431.52 201.43 434.35 198.6 437.84 198.6C441.32 198.6 444.15 201.43 444.15 204.92Z" fill="#3549AA"/>
<path d="M441.62 204.92C441.62 207 439.92 208.7 437.84 208.7C435.75 208.7 434.06 207 434.06 204.92C434.06 202.83 435.75 201.14 437.84 201.14C439.92 201.14 441.62 202.83 441.62 204.92Z" fill="#172156"/>
<path d="M439.8 203.09C439.8 204.65 438.53 205.92 436.97 205.92C435.41 205.92 434.15 204.65 434.15 203.09C434.15 201.53 435.41 200.27 436.97 200.27C438.53 200.27 439.8 201.53 439.8 203.09Z" fill="white"/>
<g opacity="0.7">
<path d="M399.5 206.58C399.5 215.79 392.04 223.25 382.84 223.25C373.63 223.25 366.17 215.79 366.17 206.58C366.17 197.38 373.63 189.92 382.84 189.92C392.04 189.92 399.5 197.38 399.5 206.58Z" fill="#686F6E"/>
</g>
<path d="M396.5 204.92C396.5 212.46 390.38 218.58 382.84 218.58C375.29 218.58 369.17 212.46 369.17 204.92C369.17 197.37 375.29 191.25 382.84 191.25C390.38 191.25 396.5 197.37 396.5 204.92Z" fill="white"/>
<path d="M389.15 204.92C389.15 208.4 386.32 211.23 382.84 211.23C379.35 211.23 376.52 208.4 376.52 204.92C376.52 201.43 379.35 198.6 382.84 198.6C386.32 198.6 389.15 201.43 389.15 204.92Z" fill="#3549AA"/>
<path d="M386.62 204.92C386.62 207 384.92 208.7 382.84 208.7C380.75 208.7 379.06 207 379.06 204.92C379.06 202.83 380.75 201.14 382.84 201.14C384.92 201.14 386.62 202.83 386.62 204.92Z" fill="#172156"/>
<path d="M384.8 203.09C384.8 204.65 383.53 205.92 381.97 205.92C380.41 205.92 379.15 204.65 379.15 203.09C379.15 201.53 380.41 200.27 381.97 200.27C383.53 200.27 384.8 201.53 384.8 203.09Z" fill="white"/>
<path d="M418.61 234.73C418.61 240.29 414.91 241.86 410.34 241.86C405.77 241.86 402.06 240.29 402.06 234.73C402.06 229.16 405.77 224.64 410.34 224.64C414.91 224.64 418.61 229.16 418.61 234.73Z" fill="#686F6E"/>
<g opacity="0.7">
<path d="M629.43 358C629.43 367.21 621.97 374.67 612.77 374.67C603.56 374.67 596.1 367.21 596.1 358C596.1 348.8 603.56 341.34 612.77 341.34C621.97 341.34 629.43 348.8 629.43 358Z" fill="#686F6E"/>
</g>
<path d="M626.43 356.34C626.43 363.88 620.32 370 612.77 370C605.22 370 599.1 363.88 599.1 356.34C599.1 348.79 605.22 342.67 612.77 342.67C620.32 342.67 626.43 348.79 626.43 356.34Z" fill="white"/>
<path d="M619.08 356.34C619.08 359.82 616.25 362.65 612.77 362.65C609.28 362.65 606.45 359.82 606.45 356.34C606.45 352.85 609.28 350.02 612.77 350.02C616.25 350.02 619.08 352.85 619.08 356.34Z" fill="#3549AA"/>
<path d="M616.55 356.34C616.55 358.42 614.86 360.12 612.77 360.12C610.68 360.12 608.99 358.42 608.99 356.34C608.99 354.25 610.68 352.56 612.77 352.56C614.86 352.56 616.55 354.25 616.55 356.34Z" fill="#172156"/>
<path d="M614.73 354.51C614.73 356.07 613.46 357.34 611.9 357.34C610.34 357.34 609.08 356.07 609.08 354.51C609.08 352.95 610.34 351.69 611.9 351.69C613.46 351.69 614.73 352.95 614.73 354.51Z" fill="white"/>
<g opacity="0.7">
<path d="M541.1 358C541.1 367.21 548.56 374.67 557.77 374.67C566.97 374.67 574.43 367.21 574.43 358C574.43 348.8 566.97 341.34 557.77 341.34C548.56 341.34 541.1 348.8 541.1 358Z" fill="#686F6E"/>
</g>
<path d="M544.1 356.34C544.1 363.88 550.22 370 557.77 370C565.32 370 571.43 363.88 571.43 356.34C571.43 348.79 565.32 342.67 557.77 342.67C550.22 342.67 544.1 348.79 544.1 356.34Z" fill="white"/>
<path d="M551.46 356.34C551.46 359.82 554.28 362.65 557.77 362.65C561.25 362.65 564.08 359.82 564.08 356.34C564.08 352.85 561.25 350.02 557.77 350.02C554.28 350.02 551.46 352.85 551.46 356.34Z" fill="#3549AA"/>
<path d="M553.99 356.34C553.99 358.42 555.68 360.12 557.77 360.12C559.86 360.12 561.55 358.42 561.55 356.34C561.55 354.25 559.86 352.56 557.77 352.56C555.68 352.56 553.99 354.25 553.99 356.34Z" fill="#172156"/>
<path d="M555.81 354.51C555.81 356.07 557.07 357.34 558.63 357.34C560.19 357.34 561.45 356.07 561.45 354.51C561.45 352.95 560.19 351.69 558.63 351.69C557.07 351.69 555.81 352.95 555.81 354.51Z" fill="white"/>
<g opacity="0.7">
<path d="M573.27 391.49C572.78 391.49 572.29 391.32 571.9 390.96C571.1 390.2 571.05 388.94 571.8 388.13C572.11 387.81 579.34 380.16 588.77 380.16C592.29 380.16 596.95 381.56 599.17 388.2C599.51 389.24 598.95 390.38 597.9 390.73C596.85 391.07 595.72 390.51 595.37 389.46C594.17 385.85 592.07 384.16 588.77 384.16C581.1 384.16 574.79 390.8 574.73 390.86C574.33 391.28 573.8 391.49 573.27 391.49Z" fill="#686F6E"/>
</g>
<g opacity="0.7">
<path d="M581.76 394.83C581.36 394.83 580.983 394.713 580.63 394.48C579.72 393.85 579.49 392.6 580.12 391.69C581.29 390.01 584 386.8 584.11 386.66C584.83 385.82 586.09 385.72 586.93 386.43C587.78 387.14 587.88 388.4 587.17 389.25C587.14 389.28 584.47 392.44 583.41 393.97C583.02 394.53 582.4 394.83 581.76 394.83Z" fill="#686F6E"/>
</g>
<g opacity="0.7">
<path d="M589.15 395.83C589.07 395.83 588.993 395.827 588.92 395.82C587.83 395.7 587.03 394.71 587.16 393.61C587.41 391.33 588.02 387.66 588.04 387.5C588.23 386.41 589.26 385.68 590.35 385.86C591.44 386.04 592.17 387.07 591.99 388.16C591.98 388.2 591.37 391.88 591.13 394.05C591.02 395.07 590.15 395.83 589.15 395.83Z" fill="#686F6E"/>
</g>
<g opacity="0.7">
<path d="M274.64 346.17L246.3 359.15C246.89 367.82 254.09 374.67 262.91 374.67C272.11 374.67 279.57 367.21 279.57 358C279.57 353.37 277.68 349.19 274.64 346.17Z" fill="#686F6E"/>
</g>
<mask id="mask0_1550_1096" style="mask-type:luminance" maskUnits="userSpaceOnUse" x="246" y="348" width="34" height="27">
<path d="M246.7 361.84C248.44 369.19 255.02 374.67 262.91 374.67C272.11 374.67 279.57 367.21 279.57 358C279.57 354.35 278.38 350.98 276.39 348.24L246.7 361.84Z" fill="white"/>
</mask>
<g mask="url(#mask0_1550_1096)">
<path d="M276.57 356.34C276.57 363.88 270.45 370 262.91 370C255.36 370 249.24 363.88 249.24 356.34C249.24 348.79 255.36 342.67 262.91 342.67C270.45 342.67 276.57 348.79 276.57 356.34Z" fill="white"/>
<path d="M269.22 356.34C269.22 359.82 266.39 362.65 262.91 362.65C259.42 362.65 256.59 359.82 256.59 356.34C256.59 352.85 259.42 350.02 262.91 350.02C266.39 350.02 269.22 352.85 269.22 356.34Z" fill="#3549AA"/>
<path d="M266.68 356.34C266.68 358.42 264.99 360.12 262.91 360.12C260.82 360.12 259.13 358.42 259.13 356.34C259.13 354.25 260.82 352.56 262.91 352.56C264.99 352.56 266.68 354.25 266.68 356.34Z" fill="#172156"/>
<path d="M264.86 354.51C264.86 356.07 263.6 357.34 262.04 357.34C260.48 357.34 259.22 356.07 259.22 354.51C259.22 352.95 260.48 351.69 262.04 351.69C263.6 351.69 264.86 352.95 264.86 354.51Z" fill="white"/>
</g>
<g opacity="0.7">
<path d="M196.17 346.17L224.51 359.15C223.92 367.82 216.72 374.67 207.91 374.67C198.7 374.67 191.24 367.21 191.24 358C191.24 353.37 193.13 349.19 196.17 346.17Z" fill="#686F6E"/>
</g>
<mask id="mask1_1550_1096" style="mask-type:luminance" maskUnits="userSpaceOnUse" x="191" y="348" width="34" height="27">
<path d="M224.11 361.84C222.38 369.19 215.79 374.67 207.91 374.67C198.7 374.67 191.24 367.21 191.24 358C191.24 354.35 192.43 350.98 194.42 348.24L224.11 361.84Z" fill="white"/>
</mask>
<g mask="url(#mask1_1550_1096)">
<path d="M194.24 356.34C194.24 363.88 200.36 370 207.91 370C215.45 370 221.57 363.88 221.57 356.34C221.57 348.79 215.45 342.67 207.91 342.67C200.36 342.67 194.24 348.79 194.24 356.34Z" fill="white"/>
<path d="M201.59 356.34C201.59 359.82 204.42 362.65 207.91 362.65C211.39 362.65 214.22 359.82 214.22 356.34C214.22 352.85 211.39 350.02 207.91 350.02C204.42 350.02 201.59 352.85 201.59 356.34Z" fill="#3549AA"/>
<path d="M204.13 356.34C204.13 358.42 205.82 360.12 207.91 360.12C209.99 360.12 211.68 358.42 211.68 356.34C211.68 354.25 209.99 352.56 207.91 352.56C205.82 352.56 204.13 354.25 204.13 356.34Z" fill="#172156"/>
<path d="M205.95 354.51C205.95 356.07 207.21 357.34 208.77 357.34C210.33 357.34 211.59 356.07 211.59 354.51C211.59 352.95 210.33 351.69 208.77 351.69C207.21 351.69 205.95 352.95 205.95 354.51Z" fill="white"/>
</g>
<path d="M214.65 406.04L257.15 406.73C257.98 406.74 258.78 406.21 259.06 405.4C259.23 404.94 262.99 394.02 255.9 383.69C252.33 378.49 244.85 375.26 236.37 375.26C228.47 375.26 221.18 378.08 216.87 382.79C208.77 391.65 212.61 404.12 212.78 404.65C213.04 405.47 213.79 406.03 214.65 406.04Z" fill="#8E262B"/>
<path d="M214.22 386.53C214.22 386.53 219.09 392.46 219.59 392.13C220.09 391.79 227.42 386.53 227.42 386.53L235.96 392.96L244.26 386.53C244.26 386.53 251.92 392.29 252.42 392.29C252.92 392.29 257.58 386.53 257.58 386.53C257.58 386.53 255.01 374.67 235.9 374.67C216.79 374.67 214.22 386.53 214.22 386.53Z" fill="white"/>
<path fill-rule="evenodd" clip-rule="evenodd" d="M225.61 348.24C224.117 348.24 222.633 348.147 221.16 347.96C215.09 347.21 210.72 344.81 206.55 339.95C205.83 339.11 205.93 337.85 206.77 337.13C207.61 336.41 208.87 336.51 209.59 337.35C213.1 341.44 216.59 343.36 221.66 344C224.59 344.36 227.55 344.29 230.24 343.91C230.187 343.863 230.133 343.813 230.08 343.76C227 340.76 225.94 335.26 227.61 330.96C229.03 327.3 232.21 325.12 236.34 324.98C242.36 324.78 244.76 327.91 245.65 329.8C247.68 334.09 245.93 339.63 243.25 342.67C242.863 343.103 242.413 343.517 241.9 343.91C246.03 344.12 250.49 343.37 253.51 341.86C258.58 339.33 260.04 335.87 260.8 332.83C261.07 331.76 262.15 331.11 263.22 331.37C264.3 331.64 264.95 332.73 264.68 333.8C263.75 337.5 261.85 342.16 255.3 345.44C250.53 347.82 242.01 348.93 235.56 346.88C232.57 347.75 229.11 348.24 225.61 348.24ZM236.9 328.97C236.76 328.97 236.617 328.973 236.47 328.98C233.903 329.073 232.193 330.217 231.34 332.41C230.27 335.16 230.97 339.05 232.87 340.9C233.6 341.61 234.55 342.19 235.66 342.65C237.77 341.91 239.39 340.99 240.25 340.02C242.34 337.66 243.14 333.84 242.03 331.5C241.237 329.82 239.527 328.977 236.9 328.97Z" fill="#686F6E"/>
<path d="M446.79 353.16H442.37V348.74C442.37 346.99 440.95 345.56 439.19 345.56C437.44 345.56 436.01 346.99 436.01 348.74V353.16H431.6C429.84 353.16 428.42 354.58 428.42 356.34C428.42 358.09 429.84 359.52 431.6 359.52H436.01V363.93C436.01 365.68 437.44 367.11 439.19 367.11C440.95 367.11 442.37 365.68 442.37 363.93V359.52H446.79C448.54 359.52 449.97 358.09 449.97 356.34C449.97 354.58 448.54 353.16 446.79 353.16Z" fill="#686F6E"/>
<path d="M390.43 353.16H386.02V348.74C386.02 346.99 384.59 345.56 382.84 345.56C381.08 345.56 379.66 346.99 379.66 348.74V353.16H375.24C373.49 353.16 372.06 354.58 372.06 356.34C372.06 358.09 373.49 359.52 375.24 359.52H379.66V363.93C379.66 365.68 381.08 367.11 382.84 367.11C384.59 367.11 386.02 365.68 386.02 363.93V359.52H390.43C392.18 359.52 393.61 358.09 393.61 356.34C393.61 354.58 392.18 353.16 390.43 353.16Z" fill="#686F6E"/>
<path d="M403.49 382.63C403.49 382.63 393.65 403.29 410.19 403.29C427.86 403.29 416.49 382.63 416.49 382.63H403.49Z" fill="#DB616D"/>
<path d="M410.72 379.32C416.27 379.32 420.66 382.02 422.86 384.32C423.62 385.12 423.59 386.39 422.79 387.15C421.99 387.91 420.73 387.88 419.97 387.09C419.63 386.74 411.56 378.66 400.49 387.28C399.62 387.96 398.36 387.81 397.68 386.93C397.01 386.06 397.16 384.8 398.03 384.13C402.58 380.59 406.92 379.32 410.72 379.32Z" fill="#686F6E"/>
<path d="M444.24 340.05C440.31 336.13 439.12 331.11 439.19 327.93C439.22 326.83 440.14 325.95 441.24 325.98C442.34 326.01 443.22 326.92 443.19 328.02C443.19 328.51 443.18 339.92 457.1 341.66C458.2 341.79 458.98 342.79 458.84 343.89C458.7 344.98 457.71 345.76 456.61 345.62C450.89 344.91 446.92 342.74 444.24 340.05Z" fill="#686F6E"/>
<path d="M600.6 206.63C599.73 206.63 598.87 206.25 598.28 205.53C597.23 204.25 597.42 202.36 598.7 201.31C599.2 200.89 611.21 191.23 622.14 198.31C623.54 199.21 623.93 201.06 623.03 202.45C622.13 203.85 620.28 204.24 618.89 203.34C611.58 198.62 602.59 205.87 602.5 205.95C601.94 206.4 601.27 206.63 600.6 206.63Z" fill="#686F6E"/>
<path d="M569.93 205.72C570.8 205.72 571.66 205.35 572.26 204.62C573.31 203.34 573.12 201.45 571.84 200.4C571.33 199.99 559.33 190.33 548.39 197.4C547 198.3 546.6 200.16 547.5 201.55C548.4 202.94 550.26 203.34 551.65 202.44C558.95 197.72 567.95 204.97 568.04 205.04C568.59 205.5 569.27 205.72 569.93 205.72Z" fill="#686F6E"/>
<path d="M606.58 220L564.08 219.31C563.26 219.3 562.46 219.83 562.17 220.64C562 221.1 558.24 232.02 565.33 242.35C568.9 247.55 576.38 250.77 584.87 250.77C592.76 250.77 600.05 247.96 604.36 243.25C612.47 234.39 608.62 221.92 608.45 221.39C608.19 220.57 607.44 220.01 606.58 220Z" fill="#8E262B"/>
<path d="M597.6 241.18C597.6 245.23 592.08 248.51 585.27 248.51C578.46 248.51 572.93 245.23 572.93 241.18C572.93 237.13 578.46 233.84 585.27 233.84C592.08 233.84 597.6 237.13 597.6 241.18Z" fill="#DB616D"/>
<g opacity="0.7">
<path d="M104.64 358C104.64 367.21 97.1799 374.67 87.9699 374.67C78.7699 374.67 71.3099 367.21 71.3099 358C71.3099 348.8 78.7699 341.34 87.9699 341.34C97.1799 341.34 104.64 348.8 104.64 358Z" fill="#686F6E"/>
</g>
<path d="M101.64 356.34C101.64 363.88 95.5199 370 87.9699 370C80.4299 370 74.3099 363.88 74.3099 356.34C74.3099 348.79 80.4299 342.67 87.9699 342.67C95.5199 342.67 101.64 348.79 101.64 356.34Z" fill="white"/>
<path d="M94.2899 356.34C94.2899 359.82 91.4599 362.65 87.9699 362.65C84.4899 362.65 81.6599 359.82 81.6599 356.34C81.6599 352.85 84.4899 350.02 87.9699 350.02C91.4599 350.02 94.2899 352.85 94.2899 356.34Z" fill="#3549AA"/>
<path d="M91.75 356.34C91.75 358.42 90.06 360.12 87.97 360.12C85.89 360.12 84.2 358.42 84.2 356.34C84.2 354.25 85.89 352.56 87.97 352.56C90.06 352.56 91.75 354.25 91.75 356.34Z" fill="#172156"/>
<path d="M89.9299 354.51C89.9299 356.07 88.6699 357.34 87.1099 357.34C85.5499 357.34 84.2899 356.07 84.2899 354.51C84.2899 352.95 85.5499 351.69 87.1099 351.69C88.6699 351.69 89.9299 352.95 89.9299 354.51Z" fill="white"/>
<g opacity="0.7">
<path d="M49.6399 358C49.6399 367.21 42.1799 374.67 32.9699 374.67C23.7699 374.67 16.3099 367.21 16.3099 358C16.3099 348.8 23.7699 341.34 32.9699 341.34C42.1799 341.34 49.6399 348.8 49.6399 358Z" fill="#686F6E"/>
</g>
<path d="M46.6399 356.34C46.6399 363.88 40.5199 370 32.9699 370C25.4299 370 19.3099 363.88 19.3099 356.34C19.3099 348.79 25.4299 342.67 32.9699 342.67C40.5199 342.67 46.6399 348.79 46.6399 356.34Z" fill="white"/>
<path d="M39.2899 356.34C39.2899 359.82 36.4599 362.65 32.9699 362.65C29.4899 362.65 26.6599 359.82 26.6599 356.34C26.6599 352.85 29.4899 350.02 32.9699 350.02C36.4599 350.02 39.2899 352.85 39.2899 356.34Z" fill="#3549AA"/>
<path d="M36.75 356.34C36.75 358.42 35.0599 360.12 32.9699 360.12C30.8899 360.12 29.2 358.42 29.2 356.34C29.2 354.25 30.8899 352.56 32.9699 352.56C35.0599 352.56 36.75 354.25 36.75 356.34Z" fill="#172156"/>
<path d="M34.9299 354.51C34.9299 356.07 33.6699 357.34 32.1099 357.34C30.5499 357.34 29.2899 356.07 29.2899 354.51C29.2899 352.95 30.5499 351.69 32.1099 351.69C33.6699 351.69 34.9299 352.95 34.9299 354.51Z" fill="white"/>
<path d="M96.26 391.09H92.48V368.93L96.26 367.2V391.09Z" fill="#60C3E5"/>
<path d="M88.5599 392.36C88.5599 395.52 91.1199 398.09 94.2899 398.09C97.4499 398.09 100.01 395.52 100.01 392.36C100.01 389.2 97.4499 386.63 94.2899 386.63C91.1199 386.63 88.5599 389.2 88.5599 392.36Z" fill="#60C3E5"/>
<path d="M89.3799 391.66C89.3799 392.83 90.3299 393.78 91.5099 393.78C92.6799 393.78 93.6299 392.83 93.6299 391.66C93.6299 390.48 92.6799 389.53 91.5099 389.53C90.3299 389.53 89.3799 390.48 89.3799 391.66Z" fill="white"/>
<path d="M38.27 392.07C37.8967 392.07 37.55 391.954 37.23 391.72C36.45 391.15 36.29 390.05 36.87 389.28C37.52 388.4 40.91 384 43.73 383.25C45.76 382.72 47.15 383.8 48.37 384.76C49.39 385.55 50.44 386.38 52.15 386.73C53.66 387.04 54.15 386.57 55.48 385.06C56.37 384.04 57.49 382.77 59.27 381.88C62.99 380.02 64.99 382.36 66.45 384.07C67.15 384.88 67.86 385.72 68.81 386.39C69.59 386.94 70.01 386.87 72.05 385.01C73.11 384.05 74.32 382.95 75.81 382.51C79.86 381.33 83.66 386.21 84.08 386.77C84.66 387.54 84.5 388.64 83.73 389.22C82.96 389.8 81.86 389.64 81.28 388.87C80.16 387.39 77.98 385.53 76.79 385.87C76.08 386.08 75.23 386.85 74.41 387.6C72.68 389.18 70.07 391.56 66.79 389.25C65.49 388.33 64.55 387.23 63.79 386.34C62.23 384.52 62.01 384.42 60.83 385.01C59.67 385.59 58.91 386.46 58.11 387.37C56.74 388.94 55.03 390.9 51.45 390.16C48.93 389.64 47.36 388.41 46.22 387.52C45.19 386.72 44.91 386.56 44.62 386.64C43.46 386.94 41 389.58 39.68 391.36C39.33 391.83 38.81 392.07 38.27 392.07Z" fill="#686F6E"/>
<g opacity="0.7">
<path d="M279.57 509.42C279.57 518.63 272.11 526.09 262.91 526.09C253.7 526.09 246.24 518.63 246.24 509.42C246.24 500.22 253.7 492.76 262.91 492.76C272.11 492.76 279.57 500.22 279.57 509.42Z" fill="#686F6E"/>
</g>
<path d="M276.57 507.76C276.57 515.3 270.45 521.42 262.91 521.42C255.36 521.42 249.24 515.3 249.24 507.76C249.24 500.21 255.36 494.09 262.91 494.09C270.45 494.09 276.57 500.21 276.57 507.76Z" fill="white"/>
<path d="M269.22 507.76C269.22 511.24 266.39 514.07 262.91 514.07C259.42 514.07 256.59 511.24 256.59 507.76C256.59 504.27 259.42 501.44 262.91 501.44C266.39 501.44 269.22 504.27 269.22 507.76Z" fill="#3549AA"/>
<path d="M266.68 507.76C266.68 509.84 264.99 511.54 262.91 511.54C260.82 511.54 259.13 509.84 259.13 507.76C259.13 505.67 260.82 503.98 262.91 503.98C264.99 503.98 266.68 505.67 266.68 507.76Z" fill="#172156"/>
<path d="M264.86 505.93C264.86 507.49 263.6 508.76 262.04 508.76C260.48 508.76 259.22 507.49 259.22 505.93C259.22 504.37 260.48 503.11 262.04 503.11C263.6 503.11 264.86 504.37 264.86 505.93Z" fill="white"/>
<g opacity="0.7">
<path d="M224.57 509.42C224.57 518.63 217.11 526.09 207.91 526.09C198.7 526.09 191.24 518.63 191.24 509.42C191.24 500.22 198.7 492.76 207.91 492.76C217.11 492.76 224.57 500.22 224.57 509.42Z" fill="#686F6E"/>
</g>
<path d="M221.57 507.76C221.57 515.3 215.45 521.42 207.91 521.42C200.36 521.42 194.24 515.3 194.24 507.76C194.24 500.21 200.36 494.09 207.91 494.09C215.45 494.09 221.57 500.21 221.57 507.76Z" fill="white"/>
<path d="M214.22 507.76C214.22 511.24 211.39 514.07 207.91 514.07C204.42 514.07 201.59 511.24 201.59 507.76C201.59 504.27 204.42 501.44 207.91 501.44C211.39 501.44 214.22 504.27 214.22 507.76Z" fill="#3549AA"/>
<path d="M211.68 507.76C211.68 509.84 209.99 511.54 207.91 511.54C205.82 511.54 204.13 509.84 204.13 507.76C204.13 505.67 205.82 503.98 207.91 503.98C209.99 503.98 211.68 505.67 211.68 507.76Z" fill="#172156"/>
<path d="M209.86 505.93C209.86 507.49 208.6 508.76 207.04 508.76C205.48 508.76 204.22 507.49 204.22 505.93C204.22 504.37 205.48 503.11 207.04 503.11C208.6 503.11 209.86 504.37 209.86 505.93Z" fill="white"/>
<path d="M235.87 539.08C230.48 539.08 227.13 537.27 226.92 537.15C225.96 536.62 225.61 535.4 226.15 534.43C226.68 533.47 227.9 533.12 228.86 533.65C229.14 533.8 235 536.85 243.78 533.59C244.82 533.2 245.97 533.73 246.35 534.77C246.74 535.8 246.21 536.95 245.18 537.34C241.67 538.64 238.52 539.08 235.87 539.08Z" fill="#686F6E"/>
<path d="M250.62 542.39C250.213 542.39 249.827 542.267 249.46 542.02C244.14 538.24 244.59 531.82 245.57 528.96C245.93 527.92 247.07 527.36 248.11 527.72C249.15 528.08 249.71 529.21 249.36 530.25C249.28 530.49 247.59 535.78 251.78 538.76C252.68 539.4 252.89 540.64 252.25 541.55C251.86 542.09 251.25 542.39 250.62 542.39Z" fill="#686F6E"/>
<path d="M224.19 542.25C223.56 542.25 222.95 541.95 222.56 541.4C221.92 540.5 222.13 539.25 223.03 538.62C227.23 535.63 225.53 530.33 225.45 530.11C225.11 529.06 225.67 527.93 226.71 527.58C227.75 527.23 228.88 527.78 229.24 528.82C230.22 531.68 230.67 538.1 225.35 541.88C224.99 542.127 224.603 542.25 224.19 542.25Z" fill="#686F6E"/>
<path d="M60.86 530.74C66.41 530.74 70.8 533.44 73 535.74C73.76 536.54 73.73 537.81 72.93 538.57C72.13 539.33 70.87 539.3 70.11 538.51C69.76 538.16 61.7 530.08 50.63 538.7C49.76 539.38 48.5 539.22 47.82 538.35C47.14 537.48 47.3 536.22 48.17 535.55C52.72 532.01 57.06 530.74 60.86 530.74Z" fill="#686F6E"/>
<path d="M45.48 502.85C46.35 502.85 47.21 503.23 47.8 503.95C48.85 505.23 48.6599 507.12 47.3799 508.17C46.8799 508.59 34.87 518.25 23.94 511.17C22.54 510.27 22.15 508.42 23.05 507.02C23.95 505.63 25.8 505.24 27.2 506.13C34.5 510.86 43.49 503.61 43.58 503.53C44.14 503.08 44.81 502.85 45.48 502.85Z" fill="#686F6E"/>
<path d="M76.1499 503.76C75.2799 503.76 74.42 504.13 73.83 504.86C72.77 506.14 72.9599 508.03 74.2399 509.08C74.7499 509.49 86.75 519.15 97.69 512.08C99.08 511.18 99.48 509.32 98.58 507.93C97.68 506.54 95.8199 506.14 94.4299 507.04C87.1299 511.76 78.14 504.51 78.05 504.44C77.49 503.98 76.8199 503.76 76.1499 503.76Z" fill="#686F6E"/>
<path d="M103.52 485.52C103.52 492.94 109.53 498.95 116.95 498.95C124.36 498.95 130.38 492.94 130.38 485.52C130.38 478.1 116.95 457.62 116.95 457.62C116.95 457.62 103.52 478.1 103.52 485.52Z" fill="#88BDD3"/>
<path d="M105.19 484.96C105.19 490.53 109.7 495.04 115.26 495.04C120.83 495.04 125.34 490.53 125.34 484.96C125.34 479.4 115.26 464.03 115.26 464.03C115.26 464.03 105.19 479.4 105.19 484.96Z" fill="#B5E8F7"/>
<path d="M113.27 485.22C113.27 487.77 112.15 489.84 110.77 489.84C109.39 489.84 108.27 487.77 108.27 485.22C108.27 482.66 109.39 480.59 110.77 480.59C112.15 480.59 113.27 482.66 113.27 485.22Z" fill="white"/>
<g opacity="0.7">
<path d="M454.5 509.42C454.5 518.63 447.04 526.09 437.84 526.09C428.63 526.09 421.17 518.63 421.17 509.42C421.17 500.22 428.63 492.76 437.84 492.76C447.04 492.76 454.5 500.22 454.5 509.42Z" fill="#686F6E"/>
</g>
<path d="M451.5 507.76C451.5 515.3 445.38 521.42 437.84 521.42C430.29 521.42 424.17 515.3 424.17 507.76C424.17 500.21 430.29 494.09 437.84 494.09C445.38 494.09 451.5 500.21 451.5 507.76Z" fill="white"/>
<path d="M444.15 507.76C444.15 511.24 441.32 514.07 437.84 514.07C434.35 514.07 431.52 511.24 431.52 507.76C431.52 504.27 434.35 501.44 437.84 501.44C441.32 501.44 444.15 504.27 444.15 507.76Z" fill="#3549AA"/>
<path d="M441.62 507.76C441.62 509.84 439.92 511.54 437.84 511.54C435.75 511.54 434.06 509.84 434.06 507.76C434.06 505.67 435.75 503.98 437.84 503.98C439.92 503.98 441.62 505.67 441.62 507.76Z" fill="#172156"/>
<path d="M439.8 505.93C439.8 507.49 438.53 508.76 436.97 508.76C435.41 508.76 434.15 507.49 434.15 505.93C434.15 504.37 435.41 503.11 436.97 503.11C438.53 503.11 439.8 504.37 439.8 505.93Z" fill="white"/>
<g opacity="0.7">
<path d="M393.48 509.42C393.48 515.3 388.72 520.07 382.84 520.07C376.96 520.07 372.19 515.3 372.19 509.42C372.19 503.54 376.96 498.78 382.84 498.78C388.72 498.78 393.48 503.54 393.48 509.42Z" fill="#686F6E"/>
</g>
<path d="M391.57 508.36C391.57 513.18 387.66 517.09 382.84 517.09C378.02 517.09 374.11 513.18 374.11 508.36C374.11 503.54 378.02 499.63 382.84 499.63C387.66 499.63 391.57 503.54 391.57 508.36Z" fill="white"/>
<path d="M386.87 508.36C386.87 510.59 385.06 512.39 382.84 512.39C380.61 512.39 378.8 510.59 378.8 508.36C378.8 506.13 380.61 504.33 382.84 504.33C385.06 504.33 386.87 506.13 386.87 508.36Z" fill="#3549AA"/>
<path d="M385.25 508.36C385.25 509.69 384.17 510.77 382.84 510.77C381.5 510.77 380.42 509.69 380.42 508.36C380.42 507.02 381.5 505.94 382.84 505.94C384.17 505.94 385.25 507.02 385.25 508.36Z" fill="#172156"/>
<path d="M384.09 507.19C384.09 508.19 383.28 509 382.28 509C381.29 509 380.48 508.19 380.48 507.19C380.48 506.2 381.29 505.39 382.28 505.39C383.28 505.39 384.09 506.2 384.09 507.19Z" fill="white"/>
<path d="M400.69 555.96C401.37 556.6 404.75 557.7 410.58 557.7C416.22 557.7 419.53 556.66 420.23 556.05C421.23 545.32 419.49 536.64 415.46 532.19C413.447 529.983 410.937 528.93 407.93 529.03C406.27 529.1 404.92 529.77 403.8 531.09C399.24 536.51 400 550.83 400.68 555.9L400.69 555.96Z" fill="#8E262B"/>
</svg>
