<svg version="1.2" xmlns="http://www.w3.org/2000/svg" viewBox="0 0 1190 1418" width="1190" height="1418">
	<style>
		.s0 { fill: #dcaf8a } 
		.s1 { fill: #fdf5ed } 
		.s2 { fill: #c4997d } 
		.s3 { fill: #4c4948 } 
	</style>
	<g id="_Artboards_">
	</g>
	<g id="Background">
	</g>
	<g id="Cute Dog">
		<g id="&lt;Group&gt;">
			<path id="&lt;Path&gt;" class="s0" d="m599.61 327.17c61.49 0 123.76 15.93 152.96 57.96 47.78-9.07 93.79 27.73 120.11 58.83 38.93 46.01 56.62 108.83 70.78 149.53 14.16 40.7 47.34 97.99 54.86 130.29 5.43 23.33 1.77 46.67-8.85 57.29-10.62 10.62-13.4 11.88-25.66 13.27-13.27 20.35-13.36 30.46-26.05 37-9.23 4.75-19.07 5.47-26.87 1.49-16.26 14.43-24.72 15.56-36.33 16.26-11.12 0.66-20.08-1.83-30.2-8.79-1.99 12.27-5.75 25.32-10.61 31.18 11 22.01 21.05 36.17 25.05 59.4 3.48 20.24 0.66 36-4.48 50.43 8.29 24.72 7.13 44.96-1.99 76.7-7 24.35-26.38 41.92-48.11 53.69-3.32 29.04-15.54 49.57-43.03 62.22-28.48 13.1-58.51 13.77-86.71 13.27-28.2-0.5-46.78-8.57-69.23-17.75-22.45 9.18-52.31 17.25-80.52 17.75-28.2 0.5-58.23-0.17-86.71-13.27-27.48-12.65-39.7-33.18-43.02-62.22-21.73-11.77-41.11-29.34-48.11-53.69-9.12-31.74-10.29-51.98-1.99-76.7-5.14-14.43-7.96-30.19-4.48-50.43 4-23.23 14.05-37.39 25.05-59.4-4.87-5.86-8.63-18.91-10.62-31.18-10.12 6.96-19.07 9.45-30.19 8.79-11.62-0.7-20.07-1.83-36.33-16.26-7.8 3.98-17.64 3.26-26.88-1.49-12.68-6.54-12.77-16.65-26.04-37-12.26-1.39-15.04-2.65-25.66-13.27-10.62-10.62-14.28-33.96-8.85-57.29 7.52-32.3 40.7-89.59 54.86-130.29 14.15-40.7 31.85-103.52 70.78-149.53 26.32-31.1 72.33-67.9 120.11-58.83 29.2-42.03 91.47-57.96 152.96-57.96z"/>
			<path id="&lt;Path&gt;" class="s1" d="m602.37 713.71c-6.32-13.5-65.19-18.74-94.45-3.42 9.35-0.72 14.1 2.1 20.3 7.41-27.87-8.46-76.32-2.16-95.73 18.25 10.62-4.48 20.58-4.43 26.77-2.66-33.24 9.46-56.13 34.67-55.74 51.32 5.97-6.42 12.16-10.4 18.8-10.84-23.67 16.59-36.28 55.24-29.42 72.77 4.76-13.71 14.16-23.89 25.66-30.08-11.61 17.2-11.17 48.22 0.33 64.15-0.17-7.96 2.32-16.37 10.29-21.68 1.77 29.2 13.26 53.85 31.85 69.9 8.63 0.22 12.94-0.55 19.8-1.44 31.52 25.33 78.4 33.95 125.3 32.41 47.01-1.55 78.75-8.41 117.85-31.74 17.69 2.65 29.53-1 41.31-4.15 21.86-13.66 17.25-43.41 9.29-57.57 7.07 0 12.94 0.33 20.24 6.31 2.98-12.28-1.33-29.87-8.63-34.51 12.28 2.65 19.24 8.63 26.54 21.23 5.64-31.52-9.84-46.12-19.57-48.77 9.29-0.33 22.56 8.29 31.19 18.58-5.64-34.51-27.88-45.12-48.78-44.79 9.96-3.65 17.92-4.65 29.64-0.67-7.08-15.92-29.09-27.87-43.24-22.56 7.96-7.96 13.27-9.95 25.21-12.61-18.58-19.24-51.2-20.35-68.01-13.27 2.65-6.19 11.72-13.49 21.45-14.38-21.45-14.15-57.29-8.18-76.09 0 5.2-6.52 10.73-8.95 17.81-12.49-14.27-10.95-55.19-9.74-79.97 5.3z"/>
			<path id="&lt;Path&gt;" class="s1" d="m402.8 1141.07c5.97-9.29 44.96-18.25 52.92-14.27-4.98-3.65-9.4-5.42-17.25-5.31 23.11-11.06 43.13-0.66 51.09 5.98-1.32-3.88-5.97-7.97-11.06-10.84 19.36-3.21 34.51 2.54 40.26 10.84 18.58-10.29 52.42-7.64 65.48 8.18-5.98-1.33-11.73 0.11-15.71 2.43 9.29-1.21 28.08-0.08 37.37 8.55 12.08-16.04 21.31-18.68 33.8-13.69-3.48-5.47-8.13-6.97-14.1-6.3 10.12-13.28 37.82-13.77 47.78-9.79 8.29-13.27 47.94-17.75 60.55-5.64-5.31 1.49-8.96 5.14-9.45 6.96 7.79-3.48 28.36-7.96 41.14 4.65 18.91-4.48 36.83 9.29 38.82 24.55-15.93 25.22-58.73 39.16-100.54 39.16-41.8 0-72-0.67-96.55-17.92-23.23 14.6-63.04 18.58-98.87 18.58-43.8 0-98.05-14.6-105.68-46.12z"/>
			<path id="&lt;Path&gt;" class="s2" d="m378.3 703.65c-7.19 22.34-19.8 35.28-44.24 50.88-9.62 6.14-19.91 16.81-17.69 37.16-23.89-16.37-20.34-43.13-7.97-54.42 16.87-15.39 40.26-11.94 69.9-33.62z"/>
			<path id="&lt;Path&gt;" class="s2" d="m842.26 711.72c-8.73 15.38 0.49 38.2 10.62 46.62 13.77 11.45 19.58 28.04 15.59 41.31 22.57-7.96 25.91-29.29 20.24-41.47-6.63-14.27-30.85-16.59-46.45-46.46z"/>
			<path id="&lt;Path&gt;" class="s2" d="m386.1 996.33c0 12.84 15.76 62.47 42.91 76.48 18.15 9.37 29.78 11.68 43.21 9.34-21.02 18.98-56.05 16.64-71.24 4.68-11.74-9.26-16.34-29.2-14.01-40.88-3.21 8.18-5.84 9.64-6.71 21.02-11.39-28.31 3.75-56.47 5.84-70.64z"/>
			<path id="&lt;Path&gt;" class="s2" d="m818.54 1006.21c-1.8 17.43-25.24 50.49-46.88 58.9 7.22 2.41 13.83 4.81 24.04 2.71-15.62 15.62-41.77 27.34-59.8 28.54 28.85 7.22 48.39 5.11 66.42-8.11 18.03-13.22 32.15-51.08 16.22-82.04z"/>
			<path id="&lt;Path&gt;" class="s2" d="m278.32 673.57c-6.64 7.08-13.72 22.56-15.04 36.27-0.92 9.49 1.55 25.88 8.18 32.52-21.45-1.44-28.42-19.24-27.09-32.96 1.42-14.7 14.93-30.19 33.95-35.83z"/>
			<path id="&lt;Path&gt;" class="s2" d="m931.35 713.55c8.13 19.74 7.8 35 5.14 44.63-2.45 8.9-7.41 15.81-17.14 23.77 19.13-0.71 32.57-9.67 34.4-24.44 2.32-18.77-5.15-26.87-22.4-43.96z"/>
			<g id="&lt;Group&gt;">
				<path id="&lt;Path&gt;" class="s3" d="m554.73 648.93c-0.6-1.63-1.27-3.28-2.14-4.65-0.94-1.48-2.5-2.43-3.7-3.53-1.28-1.17-2.6-2.19-4.1-2.83-1.55-0.67-3.18-1.2-4.9-1.2-1.71 0-3.44 0.3-4.99 0.97-1.5 0.65-2.66 1.96-3.94 3.14-1.19 1.09-2.54 2.15-3.48 3.62-0.87 1.37-1.4 3-2.01 4.63-0.56 1.53-1.22 3.1-1.52 4.81-0.28 1.62-0.67 3.32-0.67 5.05 0 1.73 0.48 3.42 0.75 5.03 0.3 1.71 0.69 3.36 1.26 4.9 0.61 1.63 1.7 2.94 2.58 4.31 0.93 1.48 1.58 3.12 2.78 4.22 1.28 1.18 2.71 2.23 4.22 2.88 1.55 0.66 3.31 0.88 5.02 0.88 1.72 0 3.21-0.87 4.75-1.53 1.51-0.65 3.37-0.89 4.66-2.07 1.19-1.09 1.8-2.83 2.74-4.3 0.87-1.37 2.11-2.66 2.72-4.3 0.56-1.53 0.54-3.3 0.83-5.01 0.28-1.62 0.36-3.28 0.36-5.01 0-1.73-0.08-3.39-0.36-5-0.3-1.71-0.29-3.48-0.86-5.01z"/>
				<path id="&lt;Path&gt;" class="s3" d="m680.74 649.15c-0.61-1.64-1.06-3.26-1.94-4.63-0.94-1.48-2.21-2.57-3.4-3.66-1.28-1.18-2.42-2.5-3.93-3.14-1.55-0.67-3.27-0.85-4.98-0.85-1.71 0-3.52-0.04-5.07 0.63-1.51 0.64-2.67 2.05-3.95 3.22-1.2 1.1-2.48 2.24-3.42 3.72-0.87 1.37-1.17 3.08-1.78 4.72-0.57 1.53-1.27 3.05-1.56 4.76-0.28 1.62-0.22 3.29-0.22 5.02 0 1.73-0.01 3.4 0.26 5.01 0.3 1.71 0.47 3.42 1.04 4.95 0.6 1.64 1.69 2.99 2.56 4.36 0.94 1.47 1.66 3.09 2.85 4.19 1.28 1.18 3.01 1.6 4.52 2.24 1.55 0.67 3.06 1.39 4.77 1.39 1.71 0 3.46-0.19 5.01-0.85 1.5-0.65 2.88-1.75 4.16-2.92 1.19-1.1 2.36-2.38 3.3-3.85 0.87-1.37 1.23-3.07 1.83-4.7 0.57-1.54 1.47-3.04 1.76-4.75 0.28-1.62 0.37-3.34 0.37-5.07 0-1.73 0.07-3.48-0.2-5.09-0.3-1.71-1.42-3.17-1.98-4.7z"/>
				<path id="&lt;Path&gt;" class="s3" d="m642.96 744.73c-0.36-1.56-0.65-3.13-1.34-4.59-0.67-1.44-1.72-2.65-2.68-3.97-0.93-1.27-1.89-2.5-3.06-3.65-1.12-1.1-2.18-2.31-3.51-3.28q-1.91-1.39-4.07-2.57c-1.38-0.77-2.86-1.37-4.37-2-1.46-0.6-2.8-1.72-4.37-2.18-1.51-0.44-3.13-0.83-4.73-1.13-1.56-0.29-3.24-0.12-4.86-0.27-1.58-0.14-3.2 0.3-4.83 0.3-1.63 0-3.25-0.49-4.83-0.35-1.62 0.15-3.29 0.04-4.85 0.33-1.6 0.31-2.94 1.62-4.46 2.07-1.57 0.46-3.11 0.8-4.57 1.41-1.51 0.62-3.3 0.63-4.68 1.39-1.44 0.79-2.25 2.51-3.52 3.44-1.32 0.97-3.13 1.31-4.25 2.41-1.17 1.15-1.58 2.91-2.51 4.18-0.96 1.32-2.37 2.33-3.04 3.76-0.69 1.46-0.36 3.23-0.72 4.79-0.35 1.55-1.42 2.99-1.42 4.62 0 1.63 0.83 3.13 1.19 4.68 0.35 1.56 0.46 3.18 1.15 4.64 0.67 1.43 0.89 3.26 1.85 4.58 0.93 1.27 3.05 1.57 4.23 2.72 1.12 1.1 1.55 3.07 2.87 4.03 1.27 0.93 3.29 0.75 4.73 1.54 1.37 0.77 2.5 2.04 4.02 2.66 1.46 0.61 2.87 1.47 4.44 1.93 1.52 0.45 3.21 0.31 4.82 0.62 1.55 0.29 3.16 0.21 4.78 0.36 1.58 0.15 3.14 0.95 4.77 0.95 1.63 0 3.24-0.35 4.82-0.49 1.62-0.15 3.17-0.61 4.72-0.9 1.61-0.3 3.25-0.31 4.77-0.76 1.57-0.46 2.77-1.79 4.23-2.4 1.51-0.62 3.41-0.31 4.79-1.08 1.44-0.79 2.71-1.85 3.98-2.78 1.33-0.97 2.18-2.42 3.3-3.52 1.17-1.15 2.64-1.97 3.57-3.24 0.96-1.32 1.27-2.98 1.94-4.41 0.69-1.46 2.16-2.67 2.52-4.23 0.36-1.55-0.38-3.27-0.38-4.9 0-1.63-0.09-3.16-0.44-4.71z"/>
				<path id="&lt;Compound Path&gt;" fill-rule="evenodd" class="s3" d="m1014.79 756.36c-0.38 2.28-1.4 4.53-1.95 6.78-0.56 2.25-2.66 4.08-3.38 6.27-0.74 2.21-1.51 4.34-2.43 6.45-0.93 2.14-2.09 4.09-3.22 6.07-1.16 2.04-0.7 5.16-2.07 6.99-1.41 1.88-3.38 3.46-5.01 5.07-1.66 1.63-4.08 2.47-5.98 3.78-1.9 1.31-4.07 2.09-6.22 3.01-2.08 0.9-4.42 0.59-6.74 1.08-2.19 0.46-3.54 3.01-5.95 3.06-0.85 2.3-3.77 3.09-4.77 5.36-0.99 2.26-1.45 4.69-2.61 6.87-1.17 2.19-1.11 5.09-2.47 7.14-1.37 2.07-3.87 3.3-5.45 5.17-1.61 1.89-2.05 4.98-3.9 6.61-1.84 1.63-4.94 1.7-7.05 3.01-2.07 1.29-3.78 3.36-6.12 4.28-2.23 0.88-4.53 2.47-7.04 2.98-2.1 0.34-4.42-1.13-6.45-1.2-2.12-0.07-4.07-0.7-6.07-1.12-2.07-0.44-4.05 0.31-5.95-0.4-1.8 1.43-3.59 2.35-5.51 3.62-1.92 1.26-4.76 0.9-6.79 1.97-2.04 1.07-3.65 2.86-5.78 3.71-2.14 0.86-4.28 1.58-6.49 2.19-2.22 0.61-4.44 0.93-6.72 1.26-2.27 0.33-4.48 1.78-6.78 1.8-2.29 0.02-4.62-0.64-6.92-0.95-2.25-0.3-4.58-0.63-6.82-1.27-1.43-0.45-2.6-2.48-4.45-3.4-1.55-0.78-3.07 0.25-4.65-0.79-0.56 2.3-3.25 3.12-4.05 5.41-0.79 2.24 0.34 5.25-0.67 7.44-1 2.18-1.75 4.61-2.97 6.66-1.23 2.08-4.36 2.88-5.8 4.77-1.47 1.93-1.44 5.16-3.12 6.83-1.72 1.71-3.78 3.28-5.71 4.64-1.98 1.39-4.6 1.86-6.79 2.81-2.19 0.94-4.35 2.55-6.74 2.97-2.3 0.39-4.65-0.2-7.12-0.36-0.58 2.43-1.01 4.73-1.96 7.01-0.96 2.3-2.16 4.57-3.45 6.7-1.29 2.12-2.62 4.33-4.2 6.27-1.55 1.91-4.21 2.87-6.01 4.6-1.78 1.71-4.07 2.72-6.05 4.24-1.96 1.5-4.06 2.6-6.19 3.91-2.1 1.3-3.95 2.83-6.19 3.94-2.23 1.09-4.24 2.52-6.56 3.41-2.32 0.89-4.11 3.48-6.5 4.16-2.4 0.68-5.19-0.08-7.62 0.38-2.46 0.47-4.95 0.45-7.41 0.68-2.49 0.24-4.93 0.59-7.39 0.58-2.51-0.02-4.82-1.49-7.26-1.78-2.5-0.29-4.88 2.12-7.27 1.54-1.86 1.4-4.85 0.24-6.88 1.55-1.95 1.27-2.44 5.05-4.54 6.24-2.04 1.15-5.33 0.06-7.49 1.13-2.1 1.05-3.66 3.29-5.86 4.26q-3.23 1.42-6.6 2.74c-2.18 0.85-5.09-0.23-7.36 0.56-2.22 0.78-3.54 4.37-5.83 5.08-2.25 0.7-4.71 0.86-7.03 1.5-2.27 0.63-4.48 1.72-6.81 2.28-2.29 0.56-4.7 0.86-7.04 1.36-2.31 0.49-4.9-0.24-7.25 0.2-2.32 0.43-4.44 2.21-6.8 2.59-2.34 0.38-4.75 0.5-7.12 0.82-2.34 0.32-5.01-1.87-7.38-1.6-2.35 0.27-4.65 0.87-7.02 1.09-2.36 0.21-4.64 1.44-7.01 1.61-2.37 0.16-4.72 0.75-7.1 0.87-2.37 0.11-4.8-1.63-7.18-1.57-2.37 0.07-4.71 3.19-7.08 3.2-2.38 0.01-4.76-1.75-7.14-1.79-2.37-0.04-4.7-1.28-7.07-1.38-2.38-0.09-4.84 1.68-7.21 1.54-2.38-0.15-4.59-2.3-6.95-2.5-2.38-0.2-4.82 0.63-7.18 0.38-2.37-0.26-4.8 0.09-7.15-0.22-2.36-0.32-4.58-1.57-6.91-1.94-2.36-0.37-4.53-1.64-6.85-2.08-2.35-0.43-4.93 0.46-7.23-0.03-2.35-0.51-4.78-0.57-7.06-1.13-2.33-0.58-4.61-1.29-6.88-1.93-2.3-0.65-4.85-0.52-7.09-1.24-2.29-0.74-4.75-1.05-6.95-1.86-2.26-0.83-4.24-2.45-6.4-3.35-2.23-0.92-4.63-1.48-6.75-2.49-2.18-1.03-3.04-4.57-5.1-5.69-2.12-1.14-5.12-0.66-7.1-1.89-2.05-1.28-3.58-4-5.47-5.38-2.27 0.54-4.68 2.73-7.02 3.02-2.31 0.29-4.78-1.47-7.14-1.4-2.33 0.06-4.71 2.17-7.06 2.02-2.33-0.16-4.5-2.05-6.82-2.41-2.31-0.36-4.47-1.18-6.75-1.73-2.28-0.55-5.1 0.8-7.33 0.06-2.22-0.73-4.22-2.25-6.37-3.16-2.17-0.92-3.75-3-5.82-4.09-2.08-1.1-4.63-1.31-6.59-2.58-1.98-1.27-4.44-1.96-6.28-3.4-1.85-1.46-3.71-3.06-5.39-4.67-1.7-1.64-2.37-4.28-3.86-6.07-1.51-1.81-3.05-3.56-4.32-5.52-1.28-1.97-2.47-3.99-3.48-6.1-1.01-2.11-1.58-4.71-2.29-6.95-2.56-0.07-5.15-0.68-7.52-1.29-2.42-0.62-4.88-0.92-7.11-2.04-2.21-1.1-3.99-2.84-5.99-4.36-1.96-1.49-3.6-3.23-5.35-5.05-1.7-1.78-4.85-2.42-6.35-4.45-1.47-1.98-1.06-5.26-2.32-7.43-1.24-2.15-3.49-3.77-4.52-6.04-1.03-2.27-0.8-5.03-1.61-7.37-0.83-2.38-2.54-4.23-3.13-6.62-2.05 1.04-3.85 2.31-6.04 2.94-2.18 0.63-4.8-1.25-7.07-1.01-2.25 0.24-4.37 2.14-6.67 2.03-2.26-0.1-4.42-1.15-6.68-1.56-2.23-0.4-4.53-0.44-6.72-1.11-2.18-0.66-4.54-0.91-6.65-1.81-2.09-0.9-3.44-3.28-5.43-4.39-2-1.11-4.21-1.74-6.07-3.04-1.89-1.31-4.03-1.68-5.73-3.16-2.29 0.95-4.44 0.89-6.62 1.34-2.39 0.48-4.68-0.73-6.94-0.79-2.39-0.06-5.05 2.21-7.28 1.61-2.26-0.6-3.48-3.89-5.57-4.97-2.06-1.06-5.66 0.2-7.54-1.25-1.83-1.41-2.58-4.27-4.23-5.98-1.61-1.66-2.4-4-3.84-5.89-1.41-1.84-3.87-2.97-5.12-4.98-1.23-1.98-2.33-4.1-3.39-6.19-1.07-2.09-2.24-4.18-3.14-6.33-0.91-2.19-0.31-5.92-1.03-8.11-2.45 0.03-5.81 2-8.02 1.63-2.38-0.41-4.08-2.88-6.2-3.72-2.2-0.87-5.16-0.2-7.09-1.49-1.94-1.29-2.27-4.5-3.93-6.16-1.64-1.63-4.03-2.51-5.41-4.43-1.34-1.87-2.6-3.83-3.7-5.94-1.07-2.03-1.29-4.45-2.15-6.67-0.83-2.14-3.64-3.69-4.29-5.97-0.64-2.22 1.64-5.17 1.18-7.48-0.45-2.28-2.35-4.29-2.63-6.62-0.29-2.31-0.23-4.66-0.36-6.99-0.13-2.34-0.11-4.66-0.08-6.98q0.04-3.53 0.31-6.98c0.18-2.36 0.69-4.63 1.02-6.89 0.35-2.37 1.42-4.47 1.93-6.69 0.54-2.35 1.09-4.53 1.81-6.66 0.68-2.3 1.42-4.57 2.16-6.85 0.74-2.29 1.24-4.62 2.03-6.88 0.8-2.27 1.02-4.73 1.86-6.97 0.84-2.25 0.28-5.05 1.16-7.28 0.88-2.23 2.8-4.05 3.72-6.27 0.91-2.22 3.11-3.88 4.06-6.09q1.41-3.3 2.86-6.59c0.97-2.2 0.39-5.08 1.38-7.27 0.98-2.18 2.28-4.23 3.28-6.41 1-2.19 1.6-4.55 2.6-6.73 1.01-2.18 2.73-4.03 3.74-6.2 1.01-2.18 2.58-4.1 3.58-6.28 1.01-2.17 2.38-4.19 3.37-6.37 1-2.19 1.43-4.63 2.41-6.82 0.99-2.19 0.06-5.22 1.02-7.42 0.96-2.2 3.65-3.65 4.59-5.86 0.93-2.21 0.45-5 1.35-7.22 0.91-2.23 2.95-3.99 3.82-6.23 0.87-2.24 1.34-4.62 2.17-6.87 0.82-2.26 3.29-3.96 4.06-6.23 0.74-2.28 1.38-4.61 2.12-6.9 0.74-2.28 0.86-4.77 1.61-7.06 0.75-2.28-0.48-5.22 0.28-7.5q1.15-3.42 2.32-6.84c0.78-2.27 1.66-4.52 2.45-6.79 0.79-2.27 3.68-3.8 4.49-6.07 0.81-2.26 1.97-4.38 2.8-6.63 0.84-2.26-0.81-5.45 0.06-7.69 0.86-2.25 2.18-4.32 3.08-6.55 0.89-2.24 2.45-4.2 3.38-6.42 0.93-2.21 0.52-5.02 1.49-7.22 0.97-2.2 2.65-4.1 3.66-6.29 1.01-2.18 3.35-3.73 4.4-5.89 1.06-2.16 1.97-4.37 3.08-6.51 1.1-2.13 1.12-4.85 2.27-6.96 1.16-2.11 4.42-3.01 5.62-5.09 1.21-2.08 1.56-4.64 2.83-6.68 1.26-2.05 3.09-3.7 4.41-5.7 1.33-2.01 1.97-4.45 3.35-6.42 1.39-1.96 1.55-4.83 3-6.76 1.44-1.91 3.31-3.54 4.82-5.41 1.51-1.87 2.32-4.38 3.9-6.2 1.57-1.82 4.24-2.69 5.89-4.46 1.61-1.76 3.44-3.3 5.13-4.97 1.69-1.68 3.54-3.17 5.3-4.76 1.77-1.6 3.13-3.68 4.95-5.2 1.83-1.52 4.26-2.29 6.15-3.75 1.88-1.45 3.26-3.57 5.2-4.96 1.93-1.38 3.75-2.96 5.73-4.29 1.97-1.33 4.88-1.21 6.89-2.49 2.01-1.27 2.9-4.35 4.94-5.59 2.03-1.23 4.91-1.04 6.97-2.24 2.06-1.19 4.4-1.87 6.48-3.04 2.02-1.16 3.98-2.36 6.11-3.4 2.09-1.02 3.81-2.88 5.99-3.78 2.17-0.88 4.78-0.53 7.01-1.28 2.22-0.75 3.8-3.69 6.07-4.3 2.27-0.6 4.87 0.01 7.17-0.44 2.31-0.45 4.63-0.86 6.96-1.14 2.34-0.29 4.68-0.63 7.02-0.74 2.36-0.11 4.72 0.19 7.06 0.26 2.35 0.08 4.64 0.64 6.97 0.91 2.34 0.28 4.93 0.73 7.22 1.21 1.43-1.93 1.57-5.37 3.18-7.2 1.58-1.81 4.1-2.84 5.84-4.55 1.71-1.68 4.32-2.4 6.17-3.99 1.82-1.55 4.09-2.47 6.04-3.95 1.91-1.44 2.13-5.3 4.16-6.66 1.99-1.33 4.26-2.39 6.35-3.64 2.06-1.23 4.57-1.79 6.72-2.94 2.11-1.13 5.01-0.73 7.21-1.78 2.16-1.04 4.48-1.66 6.72-2.62 2.2-0.95 3.41-4.39 5.68-5.27 2.24-0.86 4.78-1.06 7.08-1.86 2.27-0.79 4.73-1.06 7.06-1.79 2.3-0.71 4.23-2.76 6.58-3.41 2.32-0.64 4.91-0.41 7.27-0.99 2.33-0.58 4.9-0.21 7.28-0.72 2.35-0.51 4.56-1.76 6.95-2.21 2.37-0.45 4.94 0.21 7.33-0.17 2.38-0.39 4.62-1.79 7.02-2.12 2.39-0.32 4.71-1.43 7.12-1.7 2.4-0.27 5.03 1.72 7.44 1.5 2.41-0.21 4.82-0.09 7.23-0.24 2.41-0.16 4.75-1.46 7.17-1.56 2.41-0.1 4.79-2.07 7.21-2.11 2.42-0.05 4.87 2 7.29 2.02 2.42 0.01 4.82 0.2 7.24 0.27 2.42 0.06 4.83-0.06 7.24 0.06 2.42 0.13 4.95-1.39 7.36-1.21 2.42 0.18 4.74 1.6 7.14 1.83 2.42 0.24 4.93-0.33 7.32-0.04 2.41 0.29 4.92 0.01 7.3 0.36 2.41 0.35 4.59 2.13 6.96 2.55 2.4 0.41 4.56 1.92 6.93 2.39 2.38 0.48 5.18-1.01 7.52-0.47 2.37 0.55 4.71 1.3 7.03 1.91 2.36 0.62 4.45 2.15 6.76 2.83 2.33 0.69 4.62 1.49 6.9 2.24 2.31 0.76 4.64 1.42 6.89 2.25 2.29 0.85 4.53 1.77 6.74 2.68 2.26 0.92 4.78 1.23 6.96 2.22 2.22 1.02 4.08 2.75 6.21 3.84 2.18 1.11 4.83 1.34 6.91 2.52 2.12 1.21 3.24 4.04 5.26 5.33 2.05 1.32 4.76 1.63 6.7 3.03 1.98 1.44 2.58 4.55 4.43 6.07 1.89 1.55 3.82 2.87 5.57 4.51 1.78 1.67 4.01 2.76 5.63 4.53 1.65 1.79 3.14 4.45 4.62 6.34 2.46-0.35 5.44-0.3 7.89-0.42 2.47-0.13 4.92-2.8 7.37-2.71 2.47 0.1 4.95 1.01 7.39 1.31 2.45 0.31 4.6 2.32 7.02 2.81 2.41 0.49 4.85 0.63 7.23 1.29 2.37 0.66 5.25-0.24 7.59 0.58 2.32 0.81 4.8 1.44 7.08 2.38 2.28 0.94 3.46 4.36 5.7 5.42 2.22 1.05 4.9 1.15 7.08 2.31 2.18 1.16 3.91 3.07 6.04 4.31 2.14 1.25 5.24 0.88 7.33 2.19 2.09 1.32 2.99 4.45 5.02 5.83 2.06 1.39 3.99 2.87 5.98 4.3 2.02 1.44 4.75 1.87 6.7 3.34 1.94 1.38 3.12 3.73 5 5.19 1.87 1.46 4.98 1.4 6.79 2.95 1.81 1.55 3.11 3.69 4.85 5.31 1.74 1.62 3.6 3.12 5.28 4.81 1.68 1.69 3.24 3.5 4.85 5.25 1.61 1.75 2.28 4.32 3.83 6.13 1.54 1.8 4.02 2.82 5.5 4.68 1.49 1.86 2.14 4.35 3.56 6.26 1.43 1.91 2.68 3.91 4.04 5.85 1.37 1.95 3.31 3.49 4.62 5.47 1.31 1.99 2.63 3.97 3.88 5.98 1.26 2.02 1.8 4.46 3.01 6.51 1.2 2.05 3.01 3.74 4.17 5.81 1.16 2.09 2.87 3.87 3.98 5.97 1.11 2.11 1.56 4.55 2.62 6.67 1.09 2.12 2.2 4.21 3.23 6.35 1.04 2.14 3.09 3.81 4.07 5.96 0.99 2.16 1.42 4.58 2.37 6.76 0.94 2.18 0.26 5.04 1.17 7.23 0.91 2.19 2.54 4.08 3.42 6.28 0.88 2.21 1.61 4.46 2.47 6.68 0.85 2.21 2.44 4.14 3.28 6.37 0.83 2.22 1.55 4.49 2.37 6.71 0.82 2.23 0.29 4.95 1.1 7.19 0.81 2.23 2.72 4.06 3.53 6.29 0.81 2.23 0.69 4.8 1.5 7.04 0.81 2.23 3.33 3.83 4.16 6.06 0.82 2.23 2.13 4.27 2.96 6.49 0.84 2.22 0.81 4.77 1.67 6.99 0.86 2.21 1.79 4.4 2.67 6.6 0.88 2.2 2.11 4.26 3.02 6.46 0.92 2.19 1.08 4.7 2.04 6.87 0.95 2.18 2.14 4.25 3.14 6.41 0.99 2.15 2.35 4.14 3.39 6.28 0.99 2.17 3.08 3.84 4.1 6.01 1.02 2.16 1.19 4.72 2.24 6.89 1.03 2.15 2.46 4.12 3.51 6.28 1.05 2.15 2.21 4.25 3.27 6.4 1.05 2.15 0.09 5.29 1.14 7.45 1.06 2.16 2.94 3.9 3.98 6.07 1.04 2.16 2.29 4.22 3.31 6.38 1.02 2.17 2.8 4 3.79 6.18 1 2.18 2.01 4.37 2.98 6.56 0.96 2.2 0.45 5.03 1.37 7.24 0.92 2.22 3.48 3.77 4.35 6 0.88 2.23 0.99 4.77 1.81 7.02 0.81 2.26 0.48 4.9 1.22 7.18 0.75 2.28 3.79 3.85 4.47 6.15 0.67 2.3 0.61 4.85 1.2 7.17 0.59 2.32 0.05 4.92 0.54 7.27 0.5 2.34 2.07 4.5 2.46 6.87 0.32 2.23-0.96 5.6-0.83 7.97 0.12 2.26-0.25 3.63-0.3 5.98-0.05 2.29 0.98 4.64 0.76 6.97-0.22 2.29 0.91 4.83 0.53 7.13zm-24.84-10.76c0.06-2.33-1.69-4.67-1.82-6.97-0.14-2.35 0.83-4.79 0.51-7.04-0.34-2.37-1.88-4.45-2.41-6.62-0.66-2.27-2.22-4.23-2.94-6.48-0.72-2.25-0.55-4.77-1.33-7-0.78-2.23-1.4-4.52-2.23-6.73-0.83-2.21-2.04-4.26-2.92-6.46-0.88-2.19-0.81-4.78-1.73-6.95-0.91-2.18-2.36-4.14-3.31-6.3-0.95-2.16-1.09-4.7-2.07-6.85-0.98-2.15-3.64-3.52-4.65-5.66-1-2.14-0.72-4.89-1.74-7.02-1.02-2.13-3.8-3.41-4.83-5.54-1.03-2.13-1.45-4.55-2.48-6.67-1.04-2.13-0.17-5.18-1.2-7.31-1.04-2.12-2.5-4.03-3.53-6.16-1.03-2.13-1.31-4.61-2.33-6.75-1.02-2.13-4.31-3.18-5.31-5.33-1-2.14-1.07-4.71-2.04-6.87-0.98-2.15-2.68-3.98-3.63-6.15-0.94-2.17-2.43-4.12-3.35-6.3-0.91-2.18-1.6-4.47-2.47-6.67-0.87-2.2-2.1-4.3-2.92-6.52-0.79-2.24 0.2-5.13-0.58-7.39-0.77-2.25-1.87-4.4-2.64-6.66-0.77-2.26-0.16-4.99-0.93-7.25-0.76-2.27-1.72-4.47-2.48-6.74-0.77-2.26-2.13-4.33-2.91-6.6-0.77-2.26-0.7-4.81-1.48-7.07-0.78-2.26-2.64-4.15-3.44-6.4-0.79-2.26-1.48-4.55-2.3-6.8-0.81-2.25-0.82-4.8-1.66-7.03-0.84-2.25-1.85-4.44-2.71-6.66-0.87-2.23-3.22-3.87-4.12-6.08-0.91-2.22-2.57-4.1-3.51-6.29-0.94-2.2-2.14-4.26-3.12-6.43-0.99-2.18 0.29-5.41-0.74-7.56-1.07-2.21-2.59-4.22-3.7-6.41-1.1-2.19-2.79-4.1-3.95-6.26-1.16-2.17-2.46-4.25-3.68-6.38-1.21-2.14-1.9-4.59-3.17-6.69-1.28-2.1-2.36-4.34-3.69-6.4-1.35-2.06-2.39-4.36-3.79-6.37-1.41-2.01-4.79-2.59-6.27-4.55-1.48-1.96-1.97-4.68-3.53-6.57-1.56-1.9-2.57-4.3-4.21-6.13-1.64-1.82-4.08-2.93-5.8-4.69-1.72-1.74-3.89-3.01-5.69-4.68-1.8-1.66-3.33-3.62-5.22-5.19-1.88-1.57-4.3-2.42-6.27-3.9-1.89-1.44-3.51-3.26-5.43-4.69-1.91-1.41-3.57-3.18-5.52-4.57-1.95-1.38-4.41-1.99-6.39-3.32-1.99-1.32-3.34-3.62-5.36-4.87-2.04-1.26-4.24-2.23-6.32-3.39-2.09-1.17-4.81-1.04-6.94-2.08-2.16-1.05-3.49-3.86-5.69-4.76-2.21-0.91-4.81-0.78-7.07-1.51-2.28-0.74-4.68-0.78-7-1.31-2.32-0.53-4.38-2.44-6.75-2.75-2.35-0.3-4.81 0.67-7.21 0.61-2.36-0.06-4.82-1.83-7.23-1.63-2.34 0.18-4.79 0.67-7.18 1.12-2.02 0.36-4.14 1.69-5.89 0.89-1.8-0.81-3.97-2.2-5-3.9-1.36-2.01-0.89-5.33-2.4-7.2-1.52-1.88-3.59-3.38-5.25-5.12-1.66-1.76-3.24-3.68-5.03-5.3-1.79-1.61-4.29-2.44-6.19-3.93-1.9-1.48-3.46-3.47-5.47-4.83-1.99-1.35-4.89-1.25-6.98-2.49-2.07-1.22-3.13-4.3-5.28-5.42-2.13-1.1-5.36 0.02-7.57-0.98-2.19-1-3.41-4.28-5.66-5.18-2.24-0.9-4.82-1-7.1-1.81-2.27-0.79-5.14 0.23-7.45-0.48-2.3-0.71-4.57-1.4-6.9-2.04-2.33-0.63-4.17-3.14-6.52-3.7-2.35-0.56-4.74-0.99-7.11-1.48-2.36-0.48-4.7-1.21-7.08-1.63-2.38-0.42-4.66-1.61-7.04-1.97-2.4-0.36-5.24 2.53-7.62 2.23-2.41-0.31-4.49-3.3-6.87-3.55-2.42-0.25-4.94 0.68-7.33 0.48-2.42-0.2-4.92 1.07-7.31 0.91-2.43-0.16-4.79-0.84-7.17-0.95-2.44-0.12-4.79-1.73-7.17-1.8-2.39 0.01-4.81 0.07-7.21 0.12-2.4 0.06-4.81-0.04-7.22 0.06-2.39 0.1-4.67 2.31-7.07 2.46-2.39 0.15-4.79-0.14-7.19 0.07-2.39 0.2-4.85-0.48-7.24-0.22-2.38 0.27-4.82 0.18-7.19 0.5-2.38 0.32-4.93-0.32-7.29 0.07-2.37 0.38-4.3 3.28-6.65 3.74-2.36 0.45-5.24-1.6-7.58-1.08-2.35 0.52-4.57 1.71-6.89 2.31-2.32 0.6-4.23 2.7-6.53 3.38-2.31 0.68-4.98 0.17-7.25 0.93-2.28 0.75-3.92 3.27-6.17 4.11-2.24 0.85-5.13 0.04-7.34 0.97-2.21 0.94-3.97 2.89-6.14 3.91-2.17 1.02-3.9 2.85-6.03 3.96-2.12 1.12-4.97 0.87-7.05 2.08-2.08 1.26-4.35 2.3-6.34 3.69-2 1.4-3.11 3.96-4.99 5.5-1.9 1.54-3.94 2.84-5.68 4.52-1.76 1.7-4.75 2.29-6.33 4.12-1.6 1.85-2.42 4.42-3.81 6.41-0.01 0.07-0.07 0.29-0.08 0.36-0.44 1.91-1.47 3.12-2.96 4.17-1.49 1.06-3.12 2.75-5.03 2.53-2.56-0.22-5.03-0.89-7.55-0.95-2.56-0.05-5.08 0.14-7.6 0.3-2.55 0.15-5.28-0.98-7.77-0.57-2.52 0.42-4.5 3.14-6.94 3.87-2.26 0.64-5.34-1.14-7.53-0.32-2.2 0.82-3.56 3.74-5.69 4.73-2.13 0.97-3.97 2.42-6.04 3.53-2.06 1.11-5.16 0.41-7.17 1.63-2 1.21-2.83 4.29-4.79 5.59-1.95 1.3-3.92 2.51-5.84 3.87-1.91 1.36-4.31 2.03-6.19 3.43-1.89 1.41-3.19 3.56-5.06 4.98-1.86 1.43-4.12 2.33-5.97 3.77-2.04 1.65-3.87 3.48-5.84 5.17-1.98 1.7-3.92 3.39-5.82 5.18-1.89 1.78-3.58 3.72-5.37 5.62-1.78 1.88-4.47 2.96-6.14 4.99-1.53 1.79-3.6 3.17-5.06 5.01-1.46 1.85-3.14 3.58-4.54 5.47-1.4 1.89-2.43 4.11-3.76 6.04-1.34 1.93-2.24 4.19-3.52 6.17-1.28 1.97-0.93 4.96-2.16 6.97-1.22 2-3.6 3.31-4.77 5.35-1.17 2.04-2.64 3.93-3.76 6-1.12 2.06-2 4.27-3.08 6.36-1.07 2.09-3.33 3.62-4.36 5.73-1.03 2.12 0.55 5.48-0.44 7.61-0.99 2.14-4.49 3.13-5.45 5.28-0.95 2.15 0.85 5.5-0.07 7.67-0.93 2.16-4.15 3.36-5.04 5.54-0.9 2.17-0.51 4.87-1.38 7.06q-1.3 3.28-2.57 6.57c-0.85 2.19-3.58 3.67-4.42 5.87-0.83 2.2 1.16 5.46 0.34 7.67-0.82 2.2-2.14 4.22-2.95 6.43-0.81 2.21-1.14 4.59-1.95 6.8-0.8 2.21-1.85 4.33-2.65 6.54-0.8 2.21-2.76 4-3.57 6.21-0.81 2.21-0.32 4.9-1.13 7.1-0.82 2.26-1.91 4.44-2.79 6.67-0.88 2.24-4.1 3.51-5.03 5.73-0.92 2.21-1.53 4.54-2.5 6.73-0.96 2.2-0.99 4.81-1.99 6.99-1 2.18-1.61 4.55-2.64 6.72-1.03 2.16-3.72 3.53-4.77 5.69-1.05 2.15 0.65 5.67-0.42 7.82-1.07 2.15-3.71 3.52-4.79 5.66-1.08 2.14-3.22 3.75-4.3 5.89-1.09 2.14-0.49 5.14-1.57 7.28-1.09 2.14-3.95 3.38-5.02 5.52-1.08 2.15-1.21 4.77-2.28 6.92-1.07 2.15-1.56 4.58-2.61 6.74-1.05 2.16-2.92 3.93-3.94 6.1-1.03 2.17-2.85 3.98-3.85 6.17-0.99 2.18-0.71 4.95-1.67 7.15-0.95 2.2-1.44 4.6-2.36 6.82-0.91 2.22-1.89 4.41-2.75 6.64-0.87 2.24-0.9 4.78-1.7 7.03-0.81 2.26-1.11 4.66-1.85 6.94-0.75 2.28-2.2 4.29-2.88 6.6-0.56 2.16-0.57 4.59-0.94 7.26-0.32 2.34-3.33 4.58-3.47 7.17-0.13 2.43 1.76 5 1.83 7.53 0.07 2.47-1.24 5.1-0.96 7.57 0.3 2.5 2.48 4.68 3.03 7.05 0.58 2.5-0.53 5.5 0.37 7.73 0.96 2.4 4.01 3.61 5.39 5.56 1.47 2.1 2.02 5 4.02 6.38 2 1.38 4.45 2.83 7.03 3.3 2.24 0.41 4.7-1.59 7.42-2.01 2.25-0.51 4.85 0.68 6.68 1.8 1.83 1.13 2.21 3.42 2.77 5.65 0.52 2.09 2.2 4.04 2.92 6.32 0.67 2.13 2.23 3.98 3.08 6.14 0.83 2.13 1.72 4.15 2.73 6.2 1.03 2.08 0.99 4.69 2.21 6.57 1.28 1.98 2.84 3.71 4.34 5.34q2.43 2.62 5.25 4.38c1.97 1.23 3.99 2.6 6.25 3.01 2.14 0.38 4.65 0.52 7.06 0 2.03-0.44 4.06-1.83 6.29-3.02 3.06-1.53 6.15-0.45 8.36 1.94 1.7 1.84 3.53 3.8 5.55 5.41 1.99 1.57 5.21 1.35 7.42 2.64 2.21 1.3 3.55 4.34 5.9 5.29 2.39 0.96 5.26 0.55 7.71 1.1 2.54 0.59 5.03 2.1 7.52 2.06 2.59-0.03 5.02-1.61 7.42-2.38 2.4-0.77 4.11-1.95 6.19-3.52-0.32-2.35 1.76-4.49 1.67-6.87-0.08-2.37-1.9-4.71-1.75-7.09 0.14-2.37 1.19-4.63 1.56-6.99 0.36-2.35 0.32-4.75 0.9-7.06 0.58-2.31 0.71-4.78 1.5-7.02 0.78-2.25 3.1-3.86 4.08-6.03 0.99-2.16 1.47-4.51 2.65-6.58 1.19-2.06 1.53-4.69 2.9-6.63 1.37-1.94 3.44-3.39 5-5.18 1.56-1.8 4.18-2.48 5.91-4.11 1.74-1.62 1.51-4.79 3.42-6.22 0.19-2.45 2.99-4.01 3.48-6.4 0.48-2.4-1.81-5.54-1.05-7.86 0.76-2.32 3.19-4.09 4.2-6.31 1.02-2.23 2.94-3.92 4.19-6.02 1.24-2.11 1.41-4.9 2.86-6.86 1.46-1.96 3.1-3.83 4.74-5.64 1.65-1.8 3.28-3.7 5.1-5.32 1.69-1.53 4.79-1.3 6.59-2.67 1.82-1.38 2.27-4.66 4.18-5.88 1.93-1.22 4.86-0.68 6.87-1.74 2.02-1.05 3.22-3.81 5.31-4.7 2.1-0.88 5.01 0.45 7.17-0.26 2.16-0.71 3.95-2.54 6.15-3.07 2.22-0.54 4.43-1.03 6.68-1.37 2.25-0.35 4.56 0.2 6.83 0.04 2.1-0.14 4.87-1.27 6.35 0.01 1.47 1.29 0.01 4.24 0.15 6.34 0.14 1.96 1.08 3.68-0.05 5.11-1.13 1.45-2.82 2.21-4.73 2.54-2.39 0.39-4.79 0.84-7.12 1.47-2.33 0.63-4.68 1.36-6.92 2.22-2.27 0.86-4.63 1.62-6.77 2.7-2.17 1.09-4.68 1.77-6.7 3.08-2.03 1.31-4.08 2.86-5.93 4.39-1.87 1.54-3.77 3.26-5.43 5-1.55 1.62-2.87 3.6-4.22 5.36-1.36 1.79-2.13 4.06-3.25 5.97-1.14 1.94-0.76 4.58-1.63 6.6-0.89 2.08-2.63 3.75-3.19 5.88-0.59 2.17-2.37 4.23-2.58 6.42-0.22 2.23-0.23 4.71-0.04 6.92 0.31 3.49 0.34 6.93-2.2 8.98-1.98 1.32-4 2.5-5.71 4.06-1.74 1.59-2.99 3.58-4.45 5.38-1.49 1.82-3.45 3.28-4.65 5.28-1.2 2.01-2.83 3.89-3.75 6.05-0.92 2.14-2.12 4.35-2.76 6.6-0.64 2.25-0.57 4.78-0.94 7.1-0.37 2.3 1.45 4.81 1.34 7.15-0.11 2.33-1.99 4.63-1.86 6.97 0.14 2.34 1.91 4.47 2.29 6.78 0.38 2.31-0.35 4.82 0.27 7.08 0.63 2.26 1.74 4.36 2.6 6.53 0.87 2.18 0.29 5.12 1.39 7.17 1.11 2.07 2.56 4.23 3.9 6.14 1.58 1.84 3.68 3.1 5.14 4.25 1.83 1.43 4.26 0.36 6.38 0.51 1.81 0.12 3.26-0.14 5.65-1.09 2.25-0.93 5.23-1.18 7.48-0.88 2.33 0.31 3.73 3.22 5.59 4.65 1.81 1.38 2.57 2.84 3.5 5.09 0.68 2.56 3.52 4.31 3.8 6.58 0.3 2.43 0.12 4.63 1.03 6.99 0.77 2 1.29 4.26 3.21 6.39 1.53 1.84 4.25 2.43 6.22 4.07 1.85 1.54 3.31 3.49 5.46 4.82 2.08 1.28 3.59 3.72 5.87 4.76 2.24 1.02 4.68 1.79 7.04 2.55 2.37 0.77 5.07 0.18 7.48 0.65 2.47 0.48 4.7 3.17 7.13 3.3 2.53 0.14 5.17-0.94 7.57-1.21 2.52-0.29 5.36-0.26 7.63-1.06 2.41-1.1 4.45-2.19 6.91-1.84 2.52 0.36 5.71 0.14 7.65 1.81 1.84 1.58 3.4 3.41 5.39 4.84 1.97 1.41 4.47 1.88 6.57 3.16 2.07 1.25 3.45 3.64 5.63 4.77 2.15 1.11 4.24 2.37 6.48 3.36 2.22 0.98 4.41 2.06 6.71 2.92 2.27 0.85 4.79 1 7.13 1.74 2.31 0.74 4.39 2.3 6.76 2.93 2.34 0.63 4.91 0.35 7.3 0.89 2.28 0.45 4.64 0.63 7 1.04 2.29 0.41 4.35 2.47 6.71 2.84 2.32 0.36 4.97-1.42 7.34-1.09 2.32 0.31 4.46 2.23 6.82 2.51 2.34 0.27 4.65 1.1 7.02 1.33 2.34 0.23 4.73 0.3 7.1 0.49 2.35 0.18 4.79-0.65 7.16-0.51 2.35 0.14 4.67 1.49 7.04 1.58 2.36 0.09 4.79-2.22 7.16-2.18 2.36 0.04 4.71 1.22 7.08 1.2 2.36-0.01 4.72-0.09 7.09-0.16 2.37-0.07 4.72-0.31 7.08-0.44 2.37-0.12 4.75 0.05 7.1-0.14 2.36-0.18 4.76-0.01 7.11-0.25 2.36-0.25 4.74-0.42 7.08-0.73 2.35-0.32 4.36-2.77 6.69-3.16 2.34-0.39 4.84 0.31 7.15-0.15 2.33-0.47 4.91 0.24 7.2-0.3 2.31-0.55 4.82-0.46 7.09-1.09 2.29-0.63 3.7-4.2 5.94-4.92 2.26-0.72 4.54-1.17 6.75-1.99 2.23-0.82 4.67-0.99 6.83-1.91 2.19-0.93 5.05-0.4 7.17-1.43 2.14-1.04 4.49-1.82 6.54-2.96 2.08-1.16 2.73-4.72 4.71-5.98 2-1.28 4.29-2.01 6.19-3.41 1.56-1.37 3.72-1.77 5.66-2.05 1.98-0.28 4.58-1.29 6.4-0.45 1.86 0.86 3.55 2.25 5.9 2.67 2.09 0.37 4.25 1.51 6.55 1.54 2.19 0.04 4.41-0.86 6.64-1.12 2.24-0.26 4.78 0.41 7.13-0.12 2.25-0.51 4.26-2.16 6.52-2.9 2.21-0.73 4.05-2.31 6.2-3.27 2.15-0.96 5.27-0.05 7.28-1.24 2.04-1.2 4.3-2.38 6.12-3.81 1.87-1.48 2.89-4.03 4.44-5.75 1.58-1.76 1.37-4.64 2.53-6.66 1.16-2.02 3.92-3.24 4.56-5.53 0.62-2.19 1.15-4.63 1.2-7.06-0.12-2.53 0.51-4.61 2.12-6.32 1.61-1.71 3.68-4.35 6.22-4.39 2.49 0.29 4.84 2.4 7.2 3.01 2.46 0.64 4.5 0.18 6.97-0.82 2.27-0.97 3.73-2.61 5.63-4.17 1.86-1.54 4.43-2.21 5.95-4.21 1.45-1.9 3.7-3.48 4.85-5.71 1.1-2.15 0.19-5.22 1.02-7.57 0.81-2.29 1.64-4.5 2.2-6.91 0.56-2.39 1.89-4.6 2.22-7.04 0.32-2.45 0.62-4.9 0.71-7.33 0.1-2.5-0.06-4.97-0.2-7.36-0.15-2.54-0.38-4.99-0.78-7.31-0.44-2.56-1.72-4.72-2.46-6.9-0.81-2.42-1.14-4.98-2.37-7.2-1.22-2.21-3.47-3.68-5.04-5.7-1.54-1.99-1.85-5.09-3.68-6.9-1.78-1.77-4.54-2.53-6.54-4.13-2.2-1.76-1.32-4.65-1.06-7.26 0.27-2.49-0.19-5.64-0.71-8.5-0.47-2.55-2.04-5.14-3-7.77-0.92-2.52-1.4-5.44-2.65-7.85-1.1-2.11-2.19-4.39-3.49-6.45-1.27-2.02-4.84-2.5-6.29-4.45-1.43-1.92-2.35-4.19-3.94-6.02-1.57-1.81-2.05-4.71-3.76-6.4-1.72-1.69-3.85-3.04-5.69-4.58-1.85-1.55-4.79-1.65-6.76-3.03-1.98-1.39-4.07-2.38-6.15-3.57-2.1-1.19-3.07-4.63-5.26-5.59-2.22-0.97-4.95-0.8-7.24-1.5-2.31-0.71-4.54-2.09-6.91-2.48-2.37-0.4-4.95 1.28-7.36 1.22-2.81-0.05-3.62-2.92-4.6-4.77-1.08-2.02-0.96-3.42 0.12-5.44 0.99-1.87 1.71-3.82 4.49-3.87 2.4-0.01 4.67 1.3 7.09 1.6 2.37 0.28 5.08-1.28 7.46-0.72 2.32 0.55 4.49 1.94 6.8 2.73 2.26 0.77 4.6 1.47 6.83 2.46 2.19 0.98 4.32 2.17 6.46 3.34 2.1 1.15 3.54 3.4 5.57 4.73 2.02 1.31 4.7 1.66 6.63 3.12 1.92 1.46 3.14 3.76 4.97 5.35 1.81 1.59 3.42 3.33 5.12 5.04 1.71 1.72 3.87 2.96 5.44 4.79 1.59 1.83 3.12 3.69 4.55 5.62 1.45 1.95 2.14 4.36 3.42 6.39 1.29 2.06 3.11 3.75 4.21 5.87 1.13 2.16 2.75 4.09 3.66 6.3 0.92 2.26 1.07 4.78 1.75 7.07 0.7 2.34 1.32 4.64 1.75 7 0.43 2.4 1.76 4.33 1.9 6.73 1.93 1.52 3.18 3.34 4.9 5.07 1.72 1.73 2 4.67 3.51 6.58 1.51 1.92 3.5 3.37 4.79 5.45 1.29 2.07 2.31 4.21 3.38 6.41 1.06 2.2 2.73 4.11 3.57 6.4 0.83 2.3 1.43 4.67 2.03 7.04 0.59 2.37-0.35 4.97 0 7.38 0.36 2.42 1.75 4.65 1.86 7.08 0.11 2.45-0.9 4.89-1.05 7.33 0.18 0.15 2.06-0.04 2.23 0.13 1.57 1.68 3.45 2.52 5.3 3.6 1.93 1.11 3.51 2.71 5.67 3.2 2.11 0.48 4.3 0.6 6.57 0.51 2.13-0.08 4.21-0.74 6.44-1.3 2.32-0.57 4.89-0.58 7.16-1.57 2.22-0.97 4.31-2.34 6.38-3.63 2.09-1.28 3.85-3.02 5.71-4.56 1.92-1.58 2.77-4.05 4.35-5.82 1.46-1.64 4.34-2.21 6.35-2.61 2.05-0.4 4.73-0.48 6.66 0.45 2.37 1.25 4.35 1.79 6.45 2.13 2.55 0.41 5.09 2.37 7.26 1.66 2.22-0.72 4.05-2.9 5.9-4.53 1.71-1.5 3.11-3.51 4.52-5.56 1.32-1.89 1.76-4.35 2.85-6.53 1.04-2.12 1.93-4.26 2.79-6.49 0.86-2.26 3.13-4.01 3.82-6.23 0.74-2.39-0.35-5.18 0.21-7.34 0.48-2.07 2.32-3.8 3.68-5.23 1.41-1.48 3.64-1.49 5.6-2.07 1.9-0.57 4.01-3.02 6.06-2.53 2.39 0.43 4.05 1.18 5.98 0.8 2.12-0.42 4.38-0.31 6.13-1.74 1.5-1.23 2.01-3.55 3.37-5.54 1.19-1.9 1.92-3.92 2.78-6.16 0.81-2.11 2.14-4.04 2.67-6.36 0.52-2.22 2.51-4.29 2.79-6.63 0.27-2.29 0.35-4.73 0.42-7.06z"/>
				<path id="&lt;Path&gt;" class="s3" d="m807.87 633.33c-0.83-2.08-1.2-4.36-1.96-6.49-0.75-2.12-1.99-4.09-2.69-6.25-0.68-2.14-1.25-4.33-1.89-6.5-0.63-2.16-0.98-4.41-1.58-6.59-0.6-2.18-0.85-4.44-1.42-6.62-0.57-2.19-1.54-4.27-2.1-6.44-0.61-2.28-1.37-4.53-1.9-6.83-0.53-2.3-0.48-4.72-0.95-7.03-0.46-2.31-1.36-4.54-1.76-6.87-0.41-2.32-0.88-4.64-1.23-6.97-0.35-2.33-0.81-4.65-1.12-6.99-0.32-2.34 0.07-4.77-0.21-7.11-0.29-2.34-0.95-4.64-1.22-6.98-0.27-2.35-0.18-4.73-0.44-7.08-0.26-2.34-0.73-4.66-1-7.01-0.26-2.34-0.72-4.66-1-7-0.28-2.35-0.1-4.75-0.41-7.09-0.3-2.34-0.68-4.67-1.02-7-0.34-2.34-0.74-4.67-1.13-7-0.39-2.32-0.99-4.62-1.44-6.93-0.44-2.32-1.29-4.55-1.8-6.85-0.51-2.31-0.69-4.68-1.28-6.97-0.58-2.28-1.32-4.53-1.99-6.79-0.66-2.26-1.67-4.41-2.43-6.65-0.76-2.22-0.89-4.68-1.76-6.89-0.85-2.19-1.89-4.32-2.85-6.49-0.96-2.14-2.49-4.02-3.57-6.14 0 0 0.06 0.16-0.01-0.01-1.51-2.53-3.74-3.09-5.7-2.3-2.08 0.85-3.4 3.02-2.04 5.75 1.01 2.03 2.01 4.08 2.83 6.2 0.82 2.1 1.61 4.24 2.27 6.43 0.65 2.16 0.9 4.45 1.42 6.66 0.52 2.2 1.35 4.35 1.77 6.59 0.42 2.22 0.29 4.55 0.63 6.8 0.34 2.24 1.11 4.42 1.4 6.67 0.3 2.26 0.02 4.58 0.28 6.82 0.25 2.43 0.72 4.84 0.9 7.29 0.18 2.44 0.63 4.86 0.76 7.31 0.13 2.45 0.09 4.9 0.19 7.35 0.1 2.45 0.15 4.9 0.24 7.35 0.08 2.45 0.21 4.9 0.28 7.35q0.11 3.67 0.23 7.34c0.09 2.45 0.11 4.91 0.23 7.35 0.12 2.45-0.12 4.93 0.05 7.37 0.16 2.45 0.89 4.85 1.12 7.29 0.22 2.44 0.12 4.91 0.42 7.35 0.29 2.43 1.15 4.78 1.53 7.2 0.38 2.42 0.5 4.88 0.98 7.29 0.49 2.39 1.16 4.75 1.76 7.13 0.6 2.37 1.02 4.8 1.75 7.15 0.73 2.32 1.56 4.63 2.42 6.94q1.29 3.42 2.8 6.81c0.99 2.22 1.77 4.57 2.92 6.76 0.98 2.05 2.55 3.81 3.63 5.84 1.06 2 2.24 3.93 3.45 5.89 1.19 1.92 2.1 4.05 3.48 5.92 1.32 1.8 3.12 3.26 4.67 5.01 1.57 1.76 3.91 3.07 6.08 2.3 2.92-1.01 3.9-4.69 2.34-7.54-0.93-2.03-2.08-3.99-2.93-6.1z"/>
				<path id="&lt;Path&gt;" class="s3" d="m441.7 447.71c-2.25-1.04-4.32-0.36-6.31 2.03-1.32 1.59-2.72 3.73-3.9 6.31-0.96 2.07-1.52 4.54-2.38 7.01-0.78 2.26-1.78 4.56-2.47 6.97-0.68 2.37-1.51 4.74-2.1 7.11-0.61 2.47-0.43 5.07-0.94 7.36-0.57 2.63-1.72 4.95-2.14 7.1-0.65 3.31-1.01 5.92-1.27 7.29-0.39 2.36-0.83 4.72-1.19 7.1-0.36 2.37-0.16 4.82-0.5 7.2-0.33 2.37-0.83 4.73-1.15 7.11-0.31 2.37-0.67 4.75-0.97 7.13-0.3 2.38-0.33 4.79-0.63 7.18-0.3 2.38-1.26 4.68-1.56 7.06-0.3 2.38 0.02 4.84-0.28 7.22-0.31 2.38-0.85 4.73-1.17 7.11-0.32 2.38-0.53 4.78-0.87 7.15-0.34 2.38-1.14 4.69-1.51 7.06-0.37 2.37-0.81 4.73-1.21 7.1-0.4 2.36-0.43 4.79-0.88 7.15-0.44 2.36-1.15 4.66-1.64 7.02-0.49 2.35-0.9 4.71-1.44 7.05-0.54 2.34-1.17 4.65-1.77 6.97-0.6 2.33-0.71 4.79-1.38 7.1-0.66 2.3-1.4 4.6-2.13 6.88-0.74 2.29-1.99 4.4-2.8 6.66-0.81 2.26-1.75 4.46-2.64 6.7-0.89 2.22-1.39 4.62-2.37 6.82-1.18 2.23-1.34 5.1 0.56 6.65 2.19 1.8 5.6 0.81 7.65-1.52 1.58-1.91 3.12-3.78 4.54-5.76 1.44-2.01 2.74-4.07 4.01-6.14q1.94-3.15 3.65-6.38c1.15-2.17 2.75-4.12 3.76-6.35 1.02-2.24 1.49-4.7 2.39-6.98 0.9-2.29 1.67-4.6 2.47-6.92 0.8-2.33 2.14-4.47 2.85-6.82 0.71-2.35 0.88-4.86 1.52-7.23 0.65-2.37 1.85-4.6 2.45-6.98 0.39-2.31 0.09-4.73 0.4-7.05 0.3-2.32 1-4.59 1.23-6.92 0.23-2.33 0.66-4.65 0.82-6.98 0.17-2.33-0.06-4.69 0.06-7.03 0.12-2.34 0.56-4.66 0.64-7.01 0.08-2.33 0.03-4.68 0.09-7.02 0.06-2.34-0.11-4.68-0.06-7.02 0.05-2.34-0.29-4.69-0.24-7.03 0.05-2.34 0.3-4.68 0.37-7.02 0.07-2.34 0.69-4.65 0.79-6.99 0.1-2.34-0.43-4.71-0.29-7.04 0.14-2.34 0.88-4.63 1.07-6.96q0.3-3.5 0.71-6.98c0.26-2.32-0.01-4.72 0.34-7.03 0.35-2.32 1.18-4.55 1.62-6.85 0.45-2.3 0.44-4.7 0.99-6.97 0.55-2.27 1.84-4.35 2.51-6.6 0.67-2.23 1.19-4.51 1.99-6.72 0.79-2.19 1.85-4.27 2.77-6.44 0 0-0.37 0.02-0.31-0.13 1.23-2.24 0.42-4.64-1.75-5.73z"/>
				<path id="&lt;Path&gt;" class="s3" d="m868.73 1002.57c-0.57-2.55-0.64-5.19-1.3-7.68-0.59-2.2-1.53-4.26-2.17-6.39-0.65-2.16-1.68-4.43-2.35-6.57 0.81-2.23 2.39-4.46 3.01-6.79 0.61-2.29 0.83-4.7 1.26-7.07 0.43-2.34 0.9-4.68 1.15-7.08 0.25-2.37-0.04-4.77 0.04-7.18 0.08-2.38-0.2-4.74-0.28-7.13-0.08-2.39 1.17-4.88 0.93-7.26-0.24-2.38-0.38-4.83-0.78-7.19-0.39-2.37-1.52-4.62-2.06-6.95-0.56-2.34-1.37-4.6-2.07-6.88-0.71-2.3-1.13-4.71-1.99-6.93-0.87-2.25-1.71-4.53-2.74-6.68-1.04-2.18-1.94-4.48-3.13-6.53-1.22-2.08-2.59-4.16-3.96-6.09-1.92-2.45-5.22-3.7-7.58-3.35-2.56 0.37-5.5 2.63-6.69 4.92-1.09 2.12 0.44 4.55 2.14 7.16 1.16 1.84 1.93 4.08 2.87 6.11 0.91 1.98 0.87 4.4 1.58 6.52 0.7 2.07 2.08 3.99 2.61 6.15 0.52 2.14-0.27 4.56 0.1 6.73 0.37 2.19 0.56 4.36 0.8 6.53 0.24 2.23 0.45 4.39 0.57 6.55 0.12 2.48 1.67 5.02 1.62 7.62-0.06 2.52-1.94 4.97-2.19 7.51-0.24 2.55 1.35 5.37 0.86 7.85-0.49 2.54-1.63 4.98-2.41 7.36-0.81 2.47-2.04 4.8-3.21 6.99-1.2 2.16-1.56 4.6-0.88 7.18 0.66 2.51 0.68 5.22 1.32 7.75 0.65 2.56 0.79 5.21 1.35 7.73 0.58 2.6 2.74 4.85 3.17 7.37 0.45 2.67 0.53 5.36 0.72 7.86 0.23 3.17-1.06 5.8-1.5 8.29-0.49 2.79-0.32 5.64-1.61 8.24-1.12 2.28-2.17 4.91-3.86 7.55-1.08 1.66-3.44 3.15-3.5 5.28-0.05 2.35 1.19 4.78 0.91 7.11-0.29 2.34-0.74 4.7-1.25 6.99-0.52 2.29-1.48 4.5-2.22 6.73-0.75 2.23-1.89 4.3-2.87 6.45-0.97 2.13-1.62 4.45-2.82 6.48-0.99 1.78-3.31 2.86-4.63 4.72-1.22 1.73-1.59 4.16-3.02 5.84-1.4 1.66-3.31 2.86-4.84 4.36-1.6 1.57-3.01 3.24-4.67 4.5-1.85 1.4-3.29 3.44-5.1 4.28-2.13 0.92-4.97 1.2-6.34 3.1-1.34 1.84-1.72 4.5-1.93 6.9-0.18 2.52-1.29 4.79-1.66 7.1-0.4 2.5-0.12 4.98-0.73 7.24-0.65 2.43-0.45 5.11-1.33 7.28-0.94 2.33-3.1 4.01-4.29 6.06-1.24 2.15-2.04 4.53-3.53 6.4-1.53 1.92-3.43 3.51-5.2 5.16-1.77 1.65-4.01 2.69-6.01 4.09-1.97 1.38-3.25 3.96-5.42 5.13-2.11 1.13-5.04 0.64-7.32 1.59-2.21 0.91-3.98 3.15-6.33 3.91-2.27 0.74-4.96 0.22-7.36 0.83-2.32 0.58-4.74 0.74-7.16 1.22-2.35 0.47-4.63 1.4-7.06 1.78-2.38 0.38-4.73 1.09-7.17 1.39-2.39 0.3-4.9-0.31-7.34-0.06-2.53 0.25-4.93 2.12-7.47 2.31-2.54 0.2-5.12 0.15-7.67 0.28-2.54 0.13-5.12-0.3-7.67-0.23-2.55 0.07-5.1-0.82-7.65-0.82-2.56 0-5.12 1.57-7.67 1.5-2.55-0.06-5.11-0.4-7.65-0.53-2.55-0.12-5.01-1.56-7.55-1.76-2.55-0.2-5.17 0.55-7.7 0.28-2.5-0.36-4.9-1.86-7.49-2.22-2.53-0.36-5.17-0.11-7.72-0.54-2.55-0.44-4.98-1.31-7.47-1.89-2.54-0.59-5.12-0.79-7.53-1.61-2.47-0.85-5.11-1.28-7.37-2.45-2.3-1.19-3.61-3.68-5.61-5.3-0.3-0.37-0.8-0.21-1.19 0.07-0.51-1.45-0.65-3.39-0.6-5.4 0.06-2.36 0.72-4.62 1.27-6.17 0.49-2.4 0.75-4.81 1.16-7.11 0.42-2.4 1.2-4.71 1.54-7.04 0.34-2.39-0.2-4.87 0.06-7.23 0.26-2.38 1.24-4.69 1.41-7.07 0.18-2.38 0.28-4.78 0.38-7.18 0.1-2.36-0.74-4.77-0.72-7.19 0.02-2.35 0.7-4.73 0.66-7.17-0.04-2.34-1.23-4.65-1.33-7.09-0.34-2.68 0.71-5.56 0.16-8.23-0.54-2.62-1.75-5.15-2.63-7.75-0.85-2.51-1.4-5.28-2.68-7.75-0.89-1.72-2.76-3.44-4.7-4.21-2.14-0.85-4.34 0.64-6.3 1.48-1.96 0.85-2.96 2.05-3.81 4.19-0.93 2.34-3.47 4.07-4.17 6.41-0.71 2.41-0.2 5.1-0.7 7.51-0.51 2.44-0.94 4.85-1.26 7.3-0.32 2.46-0.79 4.89-0.95 7.36-0.17 2.48 0.28 4.96 0.24 7.43-0.04 2.48-0.64 4.95-0.6 7.43 0.05 2.47 0.47 4.94 0.57 7.42 0.1 2.47-0.28 4.96-0.15 7.44 0.12 2.47 0.67 4.93 0.79 7.4 0.11 2.48 0.63 4.94 0.7 7.42 0.07 2.48-0.37 4.96-0.38 7.44 0.21 1.14 0.26 3.22-0.05 5.7-0.21 1.69-0.53 3.67-1.29 5.6-0.04 0.08 0.39 0.45 0.33 0.51-1.2 1.61-4.8 2.35-7.86 3.94-2.55 1.33-5.33 2.38-7.87 3.16-2.29 0.68-4.22 2.69-6.54 3.29-2.31 0.59-4.74 0.8-7.08 1.32-2.34 0.51-4.77 0.6-7.13 1.04-2.35 0.43-4.57 1.73-6.94 2.09-2.37 0.35-5.01-1.41-7.39-1.13-2.38 0.28-4.63 1.67-7.01 1.87-2.38 0.21-4.78 0.2-7.18 0.34-2.38 0.13-4.77 0.17-7.17 0.23-2.39 0.07-4.78-0.66-7.17-0.66-2.39 0-4.78 0.74-7.17 0.67-2.4-0.07-4.81 0.34-7.2 0.21-2.39-0.13-4.69-1.44-7.08-1.63-2.39-0.19-4.92 1.23-7.3 0.98-2.38-0.25-4.62-1.76-6.99-2.07-2.38-0.31-4.65-1.23-7-1.6-2.37-0.38-4.74-0.6-7.09-1.03-2.36-0.43-4.83-0.22-7.16-0.71-2.37-0.47-4.8-0.49-7-1.1-2.33-0.64-4.77-0.92-6.92-1.71-2.26-0.83-3.94-2.95-6-3.95-2.17-1.04-4.12-2.26-6.06-3.49-2.02-1.28-4.38-2.01-6.16-3.49-1.82-1.51-2.82-3.83-4.4-5.56-1.57-1.73-3.37-3.23-4.7-5.18q-1.96-2.86-3.57-6.04c-1.03-2.05-2.4-4.03-3.22-6.28-0.78-2.15-0.89-4.57-1.48-6.91-0.56-2.22-1.16-4.47-1.54-6.86-0.36-2.25-1.79-4.49-1.99-6.9-0.18-3.1-0.83-6.82-3.85-8.12-2.1-1.15-4.67-1.44-6.74-2.78-2.01-1.31-4.18-2.51-6.12-4-1.92-1.47-3.9-2.96-5.71-4.59-1.81-1.62-3.84-3.12-5.5-4.89-1.67-1.78-2.48-4.33-3.97-6.24-1.5-1.93-2.42-4.2-3.69-6.25-1.29-2.08-2.53-4.09-3.55-6.28-1.02-2.21-1.58-4.51-2.29-6.83-0.69-2.05-3-3.7-3.27-5.76-0.29-2.11-0.43-4.34-0.45-6.45-0.03-2.11 0.03-4.23 0.08-6.34-0.1-2.02-0.04-3.8-1.26-5.59-1.45-1.96-2.34-4.18-3.38-6.15-1.12-2.13-1.27-4.52-1.97-6.67-0.72-2.25-2.81-4.17-3.11-6.45-0.3-2.31 1.21-4.72 1.28-7.05 0.08-2.3-0.92-4.72-0.53-7.05 0.38-2.25 1.41-4.43 2.03-6.71 0.61-2.21 0.63-4.67 1.42-6.9 0.76-2.16 2.83-3.88 3.73-6.07 0.92-2.64 0.03-5.81-1.54-8.38-0.99-1.62-1.36-3.66-2.14-5.63-0.72-1.8-1.15-3.73-1.69-5.73-0.52-1.91-1.92-3.66-2.28-5.66-0.39-2.42-0.39-4.96-0.62-7.48-0.23-2.46 0.51-4.98 0.44-7.49-0.06-2.48-1.59-4.99-1.48-7.49 0.11-2.49 0.27-5.04 0.56-7.51 0.3-2.49 0.7-5.02 1.19-7.45 0.5-2.46 2.65-4.49 3.37-6.86 0.73-2.4 1.59-4.65 2.56-6.93 0.98-2.31 1.55-4.71 2.79-6.85 2-2.83 1.71-7.65-1.08-9.86-2.38-1.64-5.33-1.32-7.52-0.17-1.83 0.95-4.24 2.42-5.88 4.72-1.29 1.81-1 4.88-2.15 7.23q-1.54 3.14-2.88 6.63c-0.87 2.26-2.51 4.28-3.25 6.59-0.76 2.39-1.52 4.74-2.12 7-0.67 2.55-1.35 4.95-1.8 7.1-0.66 3.1-0.93 5.68-1.05 7.24-0.29 2.42 0.57 4.92 0.38 7.32-0.19 2.43-0.33 4.8-0.39 7.21-0.05 2.42-0.1 4.79 0.01 7.2 0.12 2.42-1.11 4.95-0.79 7.36 0.32 2.38 2.15 4.5 2.7 6.88 0.54 2.33 0.03 4.82 0.83 7.15-1 2.11-0.61 4.64-1.44 6.84-0.83 2.18-2.92 3.94-3.57 6.19-0.66 2.25-1.86 4.43-2.32 6.73-0.47 2.3-0.41 4.76-0.68 7.09-0.26 2.33 1.03 4.76 0.98 7.1-0.05 2.34 0.19 4.59 0.37 6.93 0.18 2.33 0.23 4.6 0.65 6.91 0.42 2.3 1.18 4.42 1.86 6.68 0.67 2.23 1.35 4.35 2.29 6.52 0.92 2.13 0.3 4.84 1.49 6.89 0.15 2.4 0.53 4.65 0.93 6.97 0.41 2.36 1.01 4.75 1.65 7.02 0.65 2.3 2.74 4.11 3.61 6.32 0.88 2.21 1.52 4.48 2.61 6.6 1.08 2.11 1.62 4.55 2.89 6.57 1.27 2.01 3.71 3.19 5.15 5.09 1.43 1.89 2.09 4.4 3.68 6.18 1.58 1.78 3.7 3.02 5.42 4.68 1.7 1.65 3.44 3.23 5.27 4.76q2.72 2.29 5.59 4.39c1.92 1.41 4.1 2.36 6.11 3.64 2.01 1.28 3.94 2.6 6.01 3.74 2.1 1.16 4.73 2.31 6.88 3.32 0.28 2.46-0.95 5.69-0.48 8.16 0.46 2.44 2.02 4.67 2.68 7.09 0.65 2.4 0.42 5.11 1.27 7.46 0.84 2.35 3.44 3.97 4.49 6.24 1.05 2.27 1.72 4.65 2.98 6.8 1.26 2.16 2.27 4.44 3.75 6.45q2.23 3.01 4.78 5.73c1.71 1.82 3.22 3.88 5.15 5.47 1.92 1.57 4.58 2.09 6.72 3.42 1.97 1.22 3.97 2.22 5.98 3.3 2.04 1.08 3.22 3.88 5.29 4.82 2.1 0.96 4.95 0.1 7.08 0.92 2.15 0.83 4.12 2.04 6.3 2.74 2.18 0.7 4.43 1.11 6.64 1.71 2.22 0.6 4.47 0.92 6.71 1.42 2.23 0.51 4.13 2.63 6.39 3.06 2.25 0.43 4.67 0 6.93 0.37 2.26 0.37 4.61 0.16 6.89 0.49 2.26 0.32 4.4 1.66 6.68 1.96 2.45 0.27 4.95 0.18 7.4 0.4 2.46 0.22 4.99-0.72 7.45-0.56 2.46 0.16 4.85 1.42 7.31 1.52 2.46 0.11 4.94-0.55 7.41-0.5 2.46 0.04 4.91 0.73 7.38 0.71 2.46-0.02 4.9-1.09 7.36-1.17 2.46-0.07 5.01 1.81 7.48 1.67q3.69-0.2 7.4-0.5c2.45-0.19 4.79-1.73 7.25-1.99 2.16-0.31 4.41-1.22 6.88-1.58 2.23-0.32 4.52-0.81 6.91-1.21 2.27-0.37 4.59-0.59 6.94-1.06 2.28-0.46 4.58-0.84 6.87-1.41 2.28-0.57 4.55-1.08 6.78-1.78 2.26-0.72 4.88-0.42 7.03-1.3 2.21-0.9 4.19-2.33 6.21-3.43 2.11-1.15 4.01-1.7 5.84-3.1 1.9 1.4 3.87 1.93 6.03 3.14 2.05 1.16 4.52 1.55 6.78 2.55 2.15 0.95 4.22 2.19 6.54 3.01 2.23 0.79 4.33 2.18 6.68 2.86 2.29 0.65 4.85 0.36 7.23 0.91 2.33 0.55 4.45 2.21 6.84 2.66 2.35 0.44 4.99-0.66 7.39-0.3 2.37 0.36 4.62 1.65 7.03 1.93 2.39 0.28 4.76 0.99 7.16 1.2 2.41 0.21 4.86 0.01 7.26 0.16 2.42 0.16 4.83 0.49 7.22 0.59 2.44 0.1 4.88-0.9 7.27-0.85 2.45 0.05 4.85 1.26 7.22 1.26 2.47 0 4.89-0.18 7.25-0.22 2.48-0.04 4.93 0.46 7.27 0.38 2.5-0.09 4.84-1.94 7.15-2.06 2.53-0.13 4.98 0.49 7.25 0.33 2.4-0.19 4.76-1.13 7.21-1.4 2.4-0.26 4.97 0.6 7.4 0.25 2.4-0.34 4.75-1.2 7.16-1.64 2.39-0.43 5.02 0.12 7.4-0.41 2.38-0.54 4.45-2.41 6.8-3.05 2.36-0.65 4.89-0.74 7.2-1.51 2.32-0.78 4.19-2.74 6.44-3.64 2.28-0.91 4.77-1.24 6.96-2.29 2.2-1.06 4.86-1.32 6.97-2.54 2.11-1.23 3.76-3.25 5.75-4.65 2-1.4 4.02-2.8 5.87-4.39 1.85-1.58 2.91-3.96 4.6-5.73 1.67-1.76 4.28-2.71 5.77-4.67 1.46-1.92 3.05-3.88 4.32-6 1.23-2.06 2.04-4.45 3.07-6.71 1.12-2.31 0.87-5.14 1.75-7.48 0.9-2.4 3.65-4.17 4.32-6.58 0.69-2.46-0.26-5.32 0.23-7.78 0.5-2.5 2.12-4.48 2.45-6.97 1.94-1.34 2.86-3.47 4.66-4.96 1.82-1.5 3.42-3.17 5.09-4.81 1.68-1.65 3.36-3.24 4.89-5.02 1.53-1.78 3.9-2.92 5.28-4.82 1.38-1.9 2.99-3.74 4.22-5.74 1.22-2 1.09-4.8 2.15-6.89 1.07-2.09 2.31-4.08 3.22-6.25 0.91-2.16 2.14-4.22 2.89-6.45 0.74-2.22 1.59-4.45 2.18-6.73 0.59-2.27-0.02-4.8 0.41-7.11 0.42-2.31 1.67-4.49 1.94-6.82 0.26-2.33-0.15-4.8-0.05-7.15 1.3-2.26 3.14-4.47 4.31-7.08 1.07-2.39 1.32-5.18 2.08-7.92 0.7-2.56 0.96-5.05 1.22-7.58 0.26-2.61 1.53-5.15 1.43-7.72-0.11-2.6-1.54-5.07-1.93-7.62-0.39-2.57-0.86-5.08-1.43-7.6z"/>
			</g>
		</g>
	</g>
</svg>